<?xml version="1.0" encoding="UTF-8"?>
<svg version="1.1" xmlns="http://www.w3.org/2000/svg" width="300" height="300">
<path d="M0 0 C0.8310022 0.00304138 1.66200439 0.00608276 2.51818848 0.00921631 C15.12301303 0.07732922 27.05029227 0.77879595 39.1875 4.4375 C39.93757324 4.65180664 40.68764648 4.86611328 41.46044922 5.08691406 C63.13501599 11.36317428 82.01594141 21.83724192 99.1875 36.4375 C99.96738281 37.09492187 100.74726563 37.75234375 101.55078125 38.4296875 C106.56216881 42.75885256 111.01521982 47.29836574 115.1875 52.4375 C116.34572266 53.85675781 116.34572266 53.85675781 117.52734375 55.3046875 C139.44424147 82.67624871 150.64721329 114.9380765 150.5625 149.9375 C150.56168427 151.20273499 150.56168427 151.20273499 150.56085205 152.49353027 C150.5231392 165.20668413 149.8784658 177.1932687 146.1875 189.4375 C145.86604004 190.56260986 145.86604004 190.56260986 145.53808594 191.71044922 C139.27445631 213.34139725 128.82844991 232.34244801 114.1875 249.4375 C113.41792969 250.34113281 112.64835937 251.24476563 111.85546875 252.17578125 C106.14595793 258.67653137 100.05588007 264.18920393 93.1875 269.4375 C92.33671875 270.10394531 91.4859375 270.77039063 90.609375 271.45703125 C65.15389277 290.77728498 34.56006889 301.08403109 2.71459961 300.77368164 C0.12387 300.74998967 -2.46582901 300.75316327 -5.05664062 300.75976562 C-17.90501787 300.74005367 -30.85089279 300.62473419 -42.8125 295.4375 C-44.25519557 294.92375474 -45.70208489 294.42167727 -47.15234375 293.9296875 C-67.34766867 286.88460338 -85.10866038 277.10854072 -100.8125 262.4375 C-102.24568187 261.2033012 -103.68289844 259.97376469 -105.125 258.75 C-108.42215304 255.88493355 -111.09573041 252.85286749 -113.8125 249.4375 C-114.25722656 249.01339844 -114.70195313 248.58929688 -115.16015625 248.15234375 C-139.48237127 222.9101395 -150.27002514 185.03288526 -150.1875 150.9375 C-150.18695618 150.09401001 -150.18641235 149.25052002 -150.18585205 148.38146973 C-150.1481392 135.66831587 -149.5034658 123.6817313 -145.8125 111.4375 C-145.49104004 110.31239014 -145.49104004 110.31239014 -145.16308594 109.16455078 C-138.89945631 87.53360275 -128.45344991 68.53255199 -113.8125 51.4375 C-112.65814453 50.08205078 -112.65814453 50.08205078 -111.48046875 48.69921875 C-105.77095793 42.19846863 -99.68088007 36.68579607 -92.8125 31.4375 C-91.96171875 30.77105469 -91.1109375 30.10460937 -90.234375 29.41796875 C-63.92443043 9.44919346 -32.78991976 -0.25595264 0 0 Z " fill="#FDC301" transform="translate(149.8125,-0.4375)"/>
<path d="M0 0 C1.12212891 0.00491455 2.24425781 0.0098291 3.40039062 0.01489258 C15.01047665 0.1785686 26.44077605 1.11213705 36.0625 8.3125 C38.5 10.875 38.5 10.875 40.0625 13.3125 C40.475 13.951875 40.8875 14.59125 41.3125 15.25 C42.30963635 17.99212495 42.19394145 20.42078807 42.0625 23.3125 C42.7225 23.3125 43.3825 23.3125 44.0625 23.3125 C44.08803307 30.64078012 44.10544317 37.96904859 44.11743164 45.29736328 C44.12243404 47.78597441 44.12923805 50.27458265 44.13793945 52.76318359 C44.15018549 56.35775471 44.15576941 59.95228669 44.16015625 63.546875 C44.16531754 64.64424988 44.17047882 65.74162476 44.17579651 66.87225342 C44.17731252 88.15176248 44.17731252 88.15176248 39.0625 95.3125 C38.423125 96.26125 37.78375 97.21 37.125 98.1875 C34.76312638 100.62094554 33.39197893 101.03504342 30.0625 101.3125 C29.5675 102.7975 29.5675 102.7975 29.0625 104.3125 C27.391875 104.498125 27.391875 104.498125 25.6875 104.6875 C22.03146323 104.9590813 22.03146323 104.9590813 20.0625 107.3125 C17.19361419 107.48782289 14.42257355 107.54387614 11.5546875 107.5078125 C10.29375778 107.50356766 10.29375778 107.50356766 9.00735474 107.49923706 C6.31725954 107.4880243 3.6274949 107.46291803 0.9375 107.4375 C-0.88410978 107.4274716 -2.70572477 107.41834551 -4.52734375 107.41015625 C-8.99752358 107.38808142 -13.46745571 107.35354434 -17.9375 107.3125 C-18.2675 105.9925 -18.5975 104.6725 -18.9375 103.3125 C-17.4525 102.8175 -17.4525 102.8175 -15.9375 102.3125 C-15.96779297 101.20181152 -15.99808594 100.09112305 -16.02929688 98.94677734 C-16.89065519 66.7313263 -17.06209086 34.53830724 -16.9375 2.3125 C-11.28833599 -0.25553417 -6.11446207 -0.03104016 0 0 Z " fill="#120E00" transform="translate(63.9375,96.6875)"/>
<path d="M0 0 C4.62535282 6.4735382 4.13781337 15.5779155 4.078125 23.24609375 C4.07766678 24.23483994 4.07720856 25.22358612 4.07673645 26.24229431 C4.07373388 28.32389534 4.06590804 30.40549453 4.0534668 32.48706055 C4.03534524 35.61580706 4.03295678 38.74425357 4.03320312 41.87304688 C3.9654847 81.46810905 3.9654847 81.46810905 -4.15234375 89.5859375 C-9.97728219 94.39121871 -14.63425074 96.48717766 -22.15234375 96.5859375 C-23.46912109 96.69421875 -23.46912109 96.69421875 -24.8125 96.8046875 C-31.9912252 97.2085539 -37.24479697 95.72741697 -43.15234375 91.5859375 C-46.42220861 88.54868498 -48.73446843 85.83956346 -50.15234375 81.5859375 C-50.81234375 81.2559375 -51.47234375 80.9259375 -52.15234375 80.5859375 C-52.48046875 77.81640625 -52.48046875 77.81640625 -52.15234375 74.5859375 C-49.88671875 72.57421875 -49.88671875 72.57421875 -46.90234375 70.8984375 C-42.83141986 68.59612955 -42.83141986 68.59612955 -39.04296875 65.87890625 C-37.15234375 64.5859375 -37.15234375 64.5859375 -33.15234375 64.5859375 C-33.04921875 65.8234375 -32.94609375 67.0609375 -32.83984375 68.3359375 C-32.37247873 71.85052248 -32.04319526 74.27325629 -29.15234375 76.5859375 C-25.52670561 76.91974564 -25.52670561 76.91974564 -22.15234375 76.5859375 C-18.46740348 69.06251779 -18.86523688 61.75253295 -19.15234375 53.5859375 C-20.20550781 53.92109375 -21.25867188 54.25625 -22.34375 54.6015625 C-27.32178068 55.88819197 -31.14688734 55.38082916 -36.15234375 54.5859375 C-36.8690625 54.50730469 -37.58578125 54.42867188 -38.32421875 54.34765625 C-43.75408837 53.47424699 -46.28525935 50.84195237 -49.70703125 46.65625 C-52.58687067 42.53107462 -53.40701778 39.7210907 -53.41796875 34.640625 C-53.42054688 33.48046875 -53.423125 32.3203125 -53.42578125 31.125 C-53.41804687 29.91585937 -53.4103125 28.70671875 -53.40234375 27.4609375 C-53.41007813 26.275 -53.4178125 25.0890625 -53.42578125 23.8671875 C-53.38359151 4.75523344 -53.38359151 4.75523344 -47.75390625 -1.0390625 C-32.3603205 -14.25501905 -15.23774502 -12.30844306 0 0 Z " fill="#110D00" transform="translate(244.15234375,107.4140625)"/>
<path d="M0 0 C5.228131 4.55318786 6.23218583 8.82411513 7.03125 15.53515625 C7.30761121 20.36257784 7.33541715 25.17721359 7.33203125 30.01171875 C7.33592882 31.39073818 7.34026563 32.76975644 7.34501648 34.14877319 C7.3524279 37.02142249 7.35222322 39.89394875 7.34692383 42.76660156 C7.34111429 46.42915883 7.35812015 50.09121282 7.3812685 53.7536869 C7.3960635 56.59517305 7.39687012 59.43653926 7.39375877 62.2780571 C7.39451407 64.27870668 7.40832497 66.27933781 7.42243958 68.27993774 C7.37473297 77.68851306 6.33780846 84.83400552 -0.23828125 91.9296875 C-5.58508396 96.89026518 -10.6094458 99.31907996 -17.96875 99.53515625 C-18.91105469 99.60863281 -19.85335937 99.68210937 -20.82421875 99.7578125 C-28.1309204 100.11898026 -33.19780707 99.15633277 -38.96875 94.53515625 C-42.95317848 90.61179181 -47.30395884 86.25475645 -48.65625 80.72265625 C-47.82321391 76.86039804 -47.03891931 76.53131907 -43.84375 74.41015625 C-42.22247442 73.44553546 -40.59762496 72.48688843 -38.96875 71.53515625 C-37.85912142 70.73013159 -36.75397731 69.91883529 -35.65625 69.09765625 C-32.96875 67.53515625 -32.96875 67.53515625 -30.80078125 67.9375 C-30.19621094 68.13472656 -29.59164062 68.33195312 -28.96875 68.53515625 C-28.76958984 69.45748047 -28.76958984 69.45748047 -28.56640625 70.3984375 C-28.38980469 71.20667969 -28.21320313 72.01492187 -28.03125 72.84765625 C-27.85722656 73.64816406 -27.68320313 74.44867188 -27.50390625 75.2734375 C-26.96988841 77.68055725 -26.96988841 77.68055725 -25.96875 80.53515625 C-22.56794423 80.43107708 -22.56794423 80.43107708 -18.96875 79.53515625 C-15.28471716 75.23711793 -15.43017669 70.61380251 -15.28125 65.22265625 C-15.24708984 64.38669922 -15.21292969 63.55074219 -15.17773438 62.68945312 C-15.09569539 60.63847853 -15.0305349 58.58684087 -14.96875 56.53515625 C-15.56695557 56.69918945 -16.16516113 56.86322266 -16.78149414 57.03222656 C-25.32031474 59.30453594 -33.99828813 58.55907875 -41.96875 54.53515625 C-46.04610469 51.00343297 -48.78882946 46.74104997 -49.22753906 41.36230469 C-49.22979492 40.13543945 -49.23205078 38.90857422 -49.234375 37.64453125 C-49.23628845 36.98108704 -49.2382019 36.31764282 -49.24017334 35.63409424 C-49.24153131 34.23213318 -49.23786196 32.83015939 -49.22949219 31.42822266 C-49.21885458 29.30601944 -49.22936469 27.18467585 -49.2421875 25.0625 C-49.25716709 10.11199043 -49.25716709 10.11199043 -45.96875 3.53515625 C-45.30875 3.53515625 -44.64875 3.53515625 -43.96875 3.53515625 C-43.63875 2.54515625 -43.30875 1.55515625 -42.96875 0.53515625 C-29.0583306 -8.36751216 -13.79850103 -10.26674184 0 0 Z " fill="#100C00" transform="translate(168.96875,104.46484375)"/>
<path d="M0 0 C5.61 0 11.22 0 17 0 C14 3 14 3 11.3125 3.1875 C10.549375 3.125625 9.78625 3.06375 9 3 C9 4.98 9 6.96 9 9 C10.98 8.67 12.96 8.34 15 8 C15 8.66 15 9.32 15 10 C15.99 10.33 16.98 10.66 18 11 C18.495 12.485 18.495 12.485 19 14 C19.66 13.01 20.32 12.02 21 11 C23.66666667 11.66666667 26.33333333 12.33333333 29 13 C29 13.99 29 14.98 29 16 C29.66 12.7 30.32 9.4 31 6 C31.66 6 32.32 6 33 6 C33.495 7.98 33.495 7.98 34 10 C34.66 10 35.32 10 36 10 C36.495 11.485 36.495 11.485 37 13 C37.33 12.34 37.66 11.68 38 11 C39.32 11 40.64 11 42 11 C42 10.34 42 9.68 42 9 C45.01031744 8.06576355 45.86650268 7.95550089 49 9 C49 9.66 49 10.32 49 11 C51.97 10.505 51.97 10.505 55 10 C57.26881841 13.08559304 58.05451946 14.42209376 57.6875 18.3125 C57.460625 19.199375 57.23375 20.08625 57 21 C57.66 21 58.32 21 59 21 C59 21.99 59 22.98 59 24 C59.598125 24.226875 60.19625 24.45375 60.8125 24.6875 C63.76738497 26.46043098 64.64499863 27.81574678 66 31 C66.77557585 36.68056905 66.24106852 41.13839722 63 46 C61.0625 47.75 61.0625 47.75 59 49 C58.43746521 49.35109833 57.87493042 49.70219666 57.29534912 50.06393433 C54.182029 51.33357652 51.57192356 51.23931359 48.21191406 51.22705078 C47.20154335 51.22748886 47.20154335 51.22748886 46.17076111 51.22793579 C43.95224974 51.22654641 41.73407744 51.21100401 39.515625 51.1953125 C37.97434676 51.19158097 36.43306613 51.18873466 34.89178467 51.18673706 C30.84097714 51.17911161 26.7903137 51.15947253 22.73956299 51.1373291 C18.6037389 51.1168472 14.46789147 51.10773033 10.33203125 51.09765625 C2.22128815 51.07622555 -5.88933799 51.04210281 -14 51 C-14 50.67 -14 50.34 -14 50 C-11.525 49.505 -11.525 49.505 -9 49 C-9.721875 48.71125 -10.44375 48.4225 -11.1875 48.125 C-15.83984652 44.60989374 -18.20579428 39.5008588 -19.48828125 33.84765625 C-19.87612271 28.25165807 -17.43467626 24.16649649 -14 20 C-13.2575 19.505 -12.515 19.01 -11.75 18.5 C-9.54501687 16.61001446 -9.60509471 15.63846206 -9.25 12.8125 C-9.1675 11.554375 -9.085 10.29625 -9 9 C-7.68 9 -6.36 9 -5 9 C-4.67 8.34 -4.34 7.68 -4 7 C-3.34 8.32 -2.68 9.64 -2 11 C-1.34 11 -0.68 11 0 11 C-0.33 12.32 -0.66 13.64 -1 15 C1.475 15.495 1.475 15.495 4 16 C4 14.02 4 12.04 4 10 C4.66 10 5.32 10 6 10 C6 7.69 6 5.38 6 3 C4.35 3 2.7 3 1 3 C0.67 2.01 0.34 1.02 0 0 Z " fill="#0F0D06" transform="translate(125,32)"/>
<path d="M0 0 C11.86065315 0 11.86065315 0 15 3 C15.70387268 5.49719238 15.70387268 5.49719238 15.80688477 8.43945312 C15.85297882 9.51267822 15.89907288 10.58590332 15.94656372 11.69165039 C15.96419769 12.78340576 15.98183167 13.87516113 16 15 C16.03575638 16.47231079 16.03575638 16.47231079 16.07223511 17.97436523 C16.16976171 24.33163486 16.06640323 30.69084155 15.9777832 37.04785156 C15.95076192 39.36349341 15.93659385 41.67931837 15.93481445 43.99511719 C15.93173097 47.36227881 15.89016592 50.72700316 15.83984375 54.09375 C15.84580063 55.12914917 15.85175751 56.16454834 15.8578949 57.23132324 C15.6914569 64.25532281 15.6914569 64.25532281 12.51000977 67.68164062 C9 69 9 69 0 69 C0 46.23 0 23.46 0 0 Z " fill="#F3BC00" transform="translate(70,116)"/>
<path d="M0 0 C3.5625 1.5 3.5625 1.5 6 3 C6 3.66 6 4.32 6 5 C6.66 5 7.32 5 8 5 C8.33 6.65 8.66 8.3 9 10 C9.66 10 10.32 10 11 10 C11.35012988 16.76917764 10.60601328 20.87278406 6.125 26.25 C2.69482172 29.0748527 -0.03033603 29.89421848 -4.4375 30.375 C-8.66051883 29.9304717 -10.75662485 28.68962817 -14 26 C-14 25.34 -14 24.68 -14 24 C-14.639375 23.731875 -15.27875 23.46375 -15.9375 23.1875 C-18 22 -18 22 -19 19 C-19.53856933 14.36477214 -19.45178019 10.92093654 -17.375 6.6875 C-12.18495428 0.81455352 -7.70025786 -1.19415764 0 0 Z " fill="#B8941B" transform="translate(128,50)"/>
<path d="M0 0 C4.05368019 3.76104468 4.84646955 7.57911765 5.18765259 12.95892334 C5.28170626 16.61741668 5.30336327 20.26998148 5.30078125 23.9296875 C5.30467571 25.2881788 5.3090119 26.64666891 5.31376648 28.00515747 C5.32120076 30.84446164 5.32095805 33.6836414 5.31567383 36.52294922 C5.30988615 40.13953689 5.32680628 43.75561126 5.3500185 47.37211418 C5.3648389 50.17590247 5.36561629 52.97956952 5.36250877 55.78339005 C5.36326339 57.75794994 5.3770684 59.73249119 5.39118958 61.70700073 C5.33966128 71.7831367 3.89937178 79.48429156 -2.4375 87.46875 C-4.4843151 89.4746288 -6.14880408 90 -9 90 C-9.495 91.485 -9.495 91.485 -10 93 C-12.64 93 -15.28 93 -18 93 C-18.495 94.485 -18.495 94.485 -19 96 C-56.22277617 97.85148255 -56.22277617 97.85148255 -62 94 C-62 93.34 -62 92.68 -62 92 C-48.47 92 -34.94 92 -21 92 C-21 91.34 -21 90.68 -21 90 C-20.41992188 89.82984375 -19.83984375 89.6596875 -19.2421875 89.484375 C-12.36338657 87.35035755 -6.81440574 84.52765103 -2 79 C1.0644323 69.80670311 0.13458317 59.27607622 0.09765625 49.70703125 C0.09578639 48.26543731 0.09436518 46.82384273 0.09336853 45.38224792 C0.08958803 41.62586651 0.07979705 37.86952504 0.06866455 34.11315918 C0.05835324 30.26489807 0.05385029 26.41663038 0.04882812 22.56835938 C0.03816981 15.0455549 0.02114852 7.52278309 0 0 Z " fill="#1E1700" transform="translate(110,115)"/>
<path d="M0 0 C0.66 0 1.32 0 2 0 C2.33 1.32 2.66 2.64 3 4 C3.66 4 4.32 4 5 4 C5.33 4.99 5.66 5.98 6 7 C6.33 6.34 6.66 5.68 7 5 C8.65 5 10.3 5 12 5 C12.27734712 7.05900093 12.52081942 9.12258293 12.75 11.1875 C12.88921875 12.33605469 13.0284375 13.48460937 13.171875 14.66796875 C12.96082209 18.75951714 11.73957246 20.05598184 9 23 C7.75983331 25.6794645 7.75983331 25.6794645 7 28 C6.67 28 6.34 28 6 28 C5.875 21.25 5.875 21.25 7 19 C3.75150023 20.72226496 3.75150023 20.72226496 3 24 C2.67 23.01 2.34 22.02 2 21 C0.88625 21.185625 -0.2275 21.37125 -1.375 21.5625 C-5 22 -5 22 -7 21 C-7.33 23.31 -7.66 25.62 -8 28 C-10 26.8125 -10 26.8125 -12 25 C-12.4375 22.4375 -12.4375 22.4375 -12 20 C-11.01 19.34 -10.02 18.68 -9 18 C-9 18.99 -9 19.98 -9 21 C-8.34 19.68 -7.68 18.36 -7 17 C-9.02045442 17.60183749 -11.02111039 18.27306096 -13 19 C-13.33 19.66 -13.66 20.32 -14 21 C-14.66 21 -15.32 21 -16 21 C-16.94401042 19.2421875 -17.88802083 17.484375 -18.83203125 15.7265625 C-20.04763493 13.69497635 -20.04763493 13.69497635 -23 12 C-23.1875 8.875 -23.1875 8.875 -23 6 C-21.35 5.34 -19.7 4.68 -18 4 C-18 3.34 -18 2.68 -18 2 C-17.34 2 -16.68 2 -16 2 C-16 2.66 -16 3.32 -16 4 C-15.01 4.33 -14.02 4.66 -13 5 C-12.67 5.99 -12.34 6.98 -12 8 C-11.34 7.01 -10.68 6.02 -10 5 C-6 6 -6 6 -2 7 C-2 7.99 -2 8.98 -2 10 C-1.34 6.7 -0.68 3.4 0 0 Z " fill="#EEBA06" transform="translate(156,38)"/>
<path d="M0 0 C3.3 0 6.6 0 10 0 C10.66 0.66 11.32 1.32 12 2 C11.625 4.625 11.625 4.625 11 7 C9.68 7 8.36 7 7 7 C7.00222061 7.74724335 7.00444122 8.49448669 7.00672913 9.26437378 C7.02674595 16.29806609 7.04198126 23.33174858 7.05181217 30.36546135 C7.05703619 33.98177172 7.06412515 37.59805861 7.07543945 41.21435547 C7.08628538 44.70268104 7.09228047 48.19098398 7.09487724 51.6793251 C7.09763081 53.66137692 7.1054401 55.6434196 7.11329651 57.62545776 C7.11337204 58.82655182 7.11344757 60.02764587 7.11352539 61.26513672 C7.115746 62.32658905 7.11796661 63.38804138 7.12025452 64.48165894 C7 67 7 67 6 69 C4.02 69 2.04 69 0 69 C0 46.23 0 23.46 0 0 Z " fill="#E0AD00" transform="translate(70,116)"/>
<path d="M0 0 C0.66 0 1.32 0 2 0 C4.59817738 6.66488979 6.1069258 12.22014136 6.20874023 19.43579102 C6.22803085 20.71805069 6.24732147 22.00031036 6.26719666 23.32142639 C6.28201061 24.71557593 6.29578297 26.10973687 6.30859375 27.50390625 C6.31516558 28.2124922 6.3217374 28.92107815 6.32850838 29.6511364 C6.36103197 33.40615722 6.38549325 37.16115064 6.4050293 40.91625977 C6.42278518 44.00164793 6.45752047 47.08611224 6.50756836 50.17114258 C6.5682609 53.91827361 6.59857081 57.66455422 6.60820198 61.41215324 C6.61667836 62.82858133 6.63529952 64.24499155 6.6649456 65.66113472 C6.86714109 75.87399314 5.50773685 84.90849941 -1.58937073 92.75782776 C-3.13824099 94.12173228 -4.68673987 95.08031743 -6.5 96.0625 C-8.76289783 97.29816131 -10.84338244 98.56225496 -13 100 C-15.40379767 100.52256471 -17.55830235 100.81635095 -20 101 C-21.51787109 101.11601562 -21.51787109 101.11601562 -23.06640625 101.234375 C-30.4937639 101.54420684 -35.24976369 100.86424824 -41 96 C-38 95 -38 95 -35 96 C-23.24703034 96.70880462 -13.96741696 96.33149526 -4.71484375 88.65625 C-2.90963607 87.09649448 -2.90963607 87.09649448 -2 85 C-1.34 85 -0.68 85 0 85 C0.77105249 80.21936935 1.12624996 75.63923446 1.12939453 70.79882812 C1.13114685 70.11654648 1.13289917 69.43426483 1.13470459 68.73130798 C1.13907062 66.49792869 1.13620375 64.26462996 1.1328125 62.03125 C1.13348705 60.46618637 1.13445833 58.90112284 1.13571167 57.33605957 C1.13718153 54.06468706 1.135057 50.79334196 1.13037109 47.52197266 C1.12467424 43.34262154 1.12795706 39.16333466 1.13394356 34.9839859 C1.13756839 31.75481691 1.13640176 28.52566299 1.13381577 25.29649353 C1.13315181 23.75601697 1.1339562 22.21553901 1.13629532 20.67506409 C1.13885352 18.5170635 1.13493695 16.35916492 1.12939453 14.20117188 C1.12859894 12.97652222 1.12780334 11.75187256 1.12698364 10.4901123 C0.99748663 6.93092055 0.56674744 3.5139115 0 0 Z " fill="#140F00" transform="translate(177,111)"/>
<path d="M0 0 C5.0140631 4.31580254 5.74767779 11.06662195 6.29077148 17.38037109 C6.4272781 21.15249538 6.46816904 24.91291098 6.46875 28.6875 C6.47587377 30.08032528 6.48357588 31.47314771 6.49182129 32.8659668 C6.5051722 35.76717314 6.50687676 38.66810773 6.50097656 41.56933594 C6.49507586 45.2576791 6.52572913 48.94470803 6.56609344 52.63279724 C6.59213603 55.50360949 6.59483333 58.37411158 6.59120178 61.24502563 C6.59368051 63.25611632 6.61823868 65.26714178 6.64343262 67.27807617 C6.57237559 76.78495288 4.7646942 84.29413226 -1.25 91.8125 C-12.65298222 100.88305404 -12.65298222 100.88305404 -21 101 C-22.42892578 101.10828125 -22.42892578 101.10828125 -23.88671875 101.21875 C-31.04243349 101.57788248 -35.43517049 100.58280077 -41 96 C-38 95 -38 95 -35 96 C-24.27279016 96.80191152 -15.5870162 95.72309611 -6.125 90.375 C1.45279233 81.90570269 1.69705337 72.81984604 1.5234375 61.9921875 C1.51663145 60.45623535 1.5119193 58.92027266 1.50918579 57.38430786 C1.49586175 53.36590751 1.45171215 49.34840834 1.40161133 45.33032227 C1.36616772 42.06008077 1.35311914 38.78992883 1.34119225 35.51952934 C1.32634235 31.59369402 1.30121234 27.66795032 1.2734375 23.7421875 C1.26852673 23.00355343 1.26361595 22.26491936 1.25855637 21.50390244 C1.20223289 14.28066637 1.14444159 7.14784199 0 0 Z " fill="#1B1500" transform="translate(249,111)"/>
<path d="M0 0 C3.32255304 2.07500439 6.23284064 4.46568128 8 8 C8.39771327 12.77255923 8.47453429 15.08482672 6.25 19.375 C2.8538211 23.33720871 1.34221819 23.87010792 -3.875 24.375 C-8.18785966 24.26235068 -10.70279071 22.82617939 -14 20 C-16.34781141 17.01187638 -16.41825081 13.78088812 -16.3203125 10.03125 C-15.67779482 5.95674762 -13.42857538 3.12245209 -10.25 0.625 C-6.73153747 -0.3523507 -3.5623791 -0.78133965 0 0 Z " fill="#C59E17" transform="translate(181,56)"/>
<path d="M0 0 C5.61 0 11.22 0 17 0 C14 3 14 3 11.3125 3.1875 C10.549375 3.125625 9.78625 3.06375 9 3 C9 4.98 9 6.96 9 9 C10.65 9 12.3 9 14 9 C12.6875 10.5 12.6875 10.5 11 12 C10.01 12 9.02 12 8 12 C8 13.98 8 15.96 8 18 C8.598125 18.2475 9.19625 18.495 9.8125 18.75 C12.33586869 20.19192497 13.50030076 21.52549626 15 24 C15 24.99 15 25.98 15 27 C15.66 27 16.32 27 17 27 C17.66 25.68 18.32 24.36 19 23 C20.65 23 22.3 23 24 23 C23.625 24.9375 23.625 24.9375 23 27 C22.01 27.495 22.01 27.495 21 28 C21 27.01 21 26.02 21 25 C19.74843946 26.04862094 19.74843946 26.04862094 19.6875 28.375 C19.72670721 31.15083198 19.72670721 31.15083198 22 32.8125 C22.66 33.204375 23.32 33.59625 24 34 C23.67 34.99 23.34 35.98 23 37 C19.125 36.125 19.125 36.125 18 35 C17.01 35.495 17.01 35.495 16 36 C15.773125 37.051875 15.54625 38.10375 15.3125 39.1875 C14.10874706 43.85806142 10.99643999 46.48747022 7 49 C3.33635543 50.21403124 -0.15986216 50.0738488 -4 50 C-4 49.34 -4 48.68 -4 48 C-2.783125 47.731875 -1.56625 47.46375 -0.3125 47.1875 C4.26244664 46.02355598 7.62823211 44.67660519 10.6875 40.9375 C12.5512041 36.76635274 13.25894122 32.4899444 14 28 C13.34 28 12.68 28 12 28 C11.505 25.525 11.505 25.525 11 23 C10.34 23 9.68 23 9 23 C9 22.34 9 21.68 9 21 C3.98628846 18.9430927 -0.64590504 18.22279267 -6 19 C-10.38253554 21.19126777 -13.16669816 23.41674539 -15 28 C-15.73560329 33.60897507 -15.28879053 37.28130055 -12 42 C-12.33 42.66 -12.66 43.32 -13 44 C-17.14036282 40.07196347 -18.78885174 38.07629124 -19.375 32.3125 C-19.31954181 27.3027768 -17.13088798 23.79798059 -14 20 C-13.2575 19.505 -12.515 19.01 -11.75 18.5 C-9.54501687 16.61001446 -9.60509471 15.63846206 -9.25 12.8125 C-9.1675 11.554375 -9.085 10.29625 -9 9 C-7.68 9 -6.36 9 -5 9 C-4.67 8.34 -4.34 7.68 -4 7 C-3.34 8.32 -2.68 9.64 -2 11 C-1.34 11 -0.68 11 0 11 C-0.33 12.32 -0.66 13.64 -1 15 C1.475 15.495 1.475 15.495 4 16 C4 14.02 4 12.04 4 10 C4.66 10 5.32 10 6 10 C6 7.69 6 5.38 6 3 C4.35 3 2.7 3 1 3 C0.67 2.01 0.34 1.02 0 0 Z " fill="#201B0A" transform="translate(125,32)"/>
<path d="M0 0 C0.33 0 0.66 0 1 0 C1.11631033 8.9540496 1.20492462 17.90783557 1.25906086 26.86247826 C1.28505552 31.02138499 1.32026517 35.1797715 1.37719727 39.33837891 C1.43188295 43.3584663 1.46149656 47.37805618 1.47438622 51.39848709 C1.48356111 52.92539925 1.50147655 54.45228693 1.52865028 55.97898483 C1.68019754 64.85353415 1.47480097 72.59855314 -4 80 C-11.09866815 87.03358952 -18.67648736 89.14566712 -28.5 89.3125 C-34.28685659 89.20177465 -39.43648644 88.56168802 -45 87 C-45 86.34 -45 85.68 -45 85 C-43.68 85.33 -42.36 85.66 -41 86 C-41 85.34 -41 84.68 -41 84 C-40.16597656 84.01160156 -39.33195313 84.02320313 -38.47265625 84.03515625 C-34.98041914 84.06315815 -31.49205123 84.04340403 -28 84 C-26.73736328 83.99419922 -26.73736328 83.99419922 -25.44921875 83.98828125 C-17.96994264 83.60302546 -12.74604052 79.74604052 -7.5625 74.5625 C-4.38623126 69.35341926 -3.7083207 63.74977251 -3.375 57.75 C-3.33560303 57.05052246 -3.29620605 56.35104492 -3.25561523 55.63037109 C-2.84520673 47.0956781 -2.97829144 38.54357539 -3.12451172 30.00292969 C-3.14215576 28.31925293 -3.14215576 28.31925293 -3.16015625 26.6015625 C-3.17699463 25.59432129 -3.19383301 24.58708008 -3.21118164 23.54931641 C-3 21 -3 21 -1 18 C-0.63648496 15.97457852 -0.63648496 15.97457852 -0.5859375 13.76953125 C-0.54726562 12.96708984 -0.50859375 12.16464844 -0.46875 11.33789062 C-0.42234375 10.08782227 -0.42234375 10.08782227 -0.375 8.8125 C-0.33632812 7.96751953 -0.29765625 7.12253906 -0.2578125 6.25195312 C-0.16363721 4.16832476 -0.08073325 2.08419247 0 0 Z " fill="#EAB500" transform="translate(250,119)"/>
<path d="M0 0 C0.99 0.66 1.98 1.32 3 2 C3 2.66 3 3.32 3 4 C3.99 4 4.98 4 6 4 C6 4.66 6 5.32 6 6 C6.66 6 7.32 6 8 6 C8 4.68 8 3.36 8 2 C11.13685998 0.95438001 13.72365939 1 17 1 C17 1.99 17 2.98 17 4 C18.32 4 19.64 4 21 4 C21.15855469 4.59167969 21.31710938 5.18335937 21.48046875 5.79296875 C21.83044922 6.97826172 21.83044922 6.97826172 22.1875 8.1875 C22.40792969 8.96480469 22.62835938 9.74210937 22.85546875 10.54296875 C24.17819273 13.74885531 24.17819273 13.74885531 29 18 C15.47 18 1.94 18 -12 18 C-10.35 16.68 -8.7 15.36 -7 14 C-3.35474877 9.92589568 0 5.62831636 0 0 Z " fill="#F8C003" transform="translate(142,64)"/>
<path d="M0 0 C-0.16351945 6.37725838 -3.87551262 10.47544687 -8 15 C-8.66 15.33 -9.32 15.66 -10 16 C-10.65772428 19.02934491 -10.65772428 19.02934491 -11 22 C-8.36 19.69 -5.72 17.38 -3 15 C-3 18 -3 18 -4.42578125 19.640625 C-5.04839844 20.17171875 -5.67101562 20.7028125 -6.3125 21.25 C-6.92738281 21.79140625 -7.54226562 22.3328125 -8.17578125 22.890625 C-8.77777344 23.25671875 -9.37976563 23.6228125 -10 24 C-10.99 23.67 -11.98 23.34 -13 23 C-13 21.68 -13 20.36 -13 19 C-14.32 19 -15.64 19 -17 19 C-17 18.34 -17 17.68 -17 17 C-18.0209375 17.2475 -18.0209375 17.2475 -19.0625 17.5 C-22.41654802 18.07090179 -25.60134704 18 -29 18 C-30.67557379 18.28520405 -32.34817245 18.59955696 -34 19 C-34.23783203 19.8353125 -34.23783203 19.8353125 -34.48046875 20.6875 C-36.17953556 26.24466878 -38.26127557 31.471578 -42 36 C-42.66 36 -43.32 36 -44 36 C-44.27672202 34.08700862 -44.52042815 32.16922064 -44.75 30.25 C-44.88921875 29.18265625 -45.0284375 28.1153125 -45.171875 27.015625 C-45 24 -45 24 -43.203125 21.6875 C-41 20 -41 20 -38 18.75 C-34.3241502 16.60575429 -33.47995146 14.65672778 -31.859375 10.83984375 C-31 9 -31 9 -29 7 C-28.01 7 -27.02 7 -26 7 C-27.30936898 9.92090003 -28.75619462 11.75619462 -31 14 C-31.33 14.99 -31.66 15.98 -32 17 C-31.30132812 16.50757813 -30.60265625 16.01515625 -29.8828125 15.5078125 C-26.54844903 13.76382294 -24.60079871 13.7162567 -20.875 13.875 C-16.36024868 14.04434511 -16.36024868 14.04434511 -12 13 C-10.42300374 10.78214406 -10.42300374 10.78214406 -9 8.125 C-4.45189504 0 -4.45189504 0 0 0 Z " fill="#453500" transform="translate(122,225)"/>
<path d="M0 0 C0.33 0 0.66 0 1 0 C1.04976954 4.14427102 1.08589288 8.28837953 1.10986328 12.43286133 C1.11986557 13.84011876 1.13347178 15.2473557 1.15087891 16.65454102 C1.17538366 18.68771448 1.18654083 20.72061106 1.1953125 22.75390625 C1.21102295 24.58417358 1.21102295 24.58417358 1.22705078 26.45141602 C0.98048118 30.30506028 0.18578175 33.34213 -1 37 C-1.66 37 -2.32 37 -3 37 C-3.2578125 37.59554687 -3.515625 38.19109375 -3.78125 38.8046875 C-6.24785827 43.2477447 -10.56370047 46.12010988 -15.29296875 47.828125 C-22.00311337 49.36062132 -29.15856379 49.65247919 -36 49 C-36.99 48.34 -37.98 47.68 -39 47 C-38.34 47 -37.68 47 -37 47 C-37 46.34 -37 45.68 -37 45 C-35.22496094 44.90525391 -35.22496094 44.90525391 -33.4140625 44.80859375 C-21.81773441 43.98799469 -14.90367467 41.90367467 -6.5 33.5 C-2.09159099 26.15265165 -2.61524568 17.9515159 -2.43359375 9.65429688 C-2.40394531 8.69974609 -2.37429687 7.74519531 -2.34375 6.76171875 C-2.32505859 5.89506592 -2.30636719 5.02841309 -2.28710938 4.13549805 C-2 2 -2 2 0 0 Z " fill="#EDB700" transform="translate(178,159)"/>
<path d="M0 0 C1.875 0.9375 1.875 0.9375 4.875 2.9375 C5.53586458 6.33206787 5.33792736 9.79881332 5.3125 13.25 C5.33248047 14.20068359 5.35246094 15.15136719 5.37304688 16.13085938 C5.36987541 20.66922805 5.3415181 23.20850928 2.84765625 27.10546875 C2.19667969 27.71003906 1.54570312 28.31460938 0.875 28.9375 C-4.875 27.3125 -4.875 27.3125 -7.125 23.9375 C-7.59999843 20.82862583 -7.54127436 17.70389509 -7.5625 14.5625 C-7.59537109 13.71171875 -7.62824219 12.8609375 -7.66210938 11.984375 C-7.70101945 7.44250761 -7.58899861 5.53926002 -4.73046875 1.83203125 C-2.125 -0.0625 -2.125 -0.0625 0 0 Z " fill="#E0AE00" transform="translate(149.125,117.0625)"/>
<path d="M0 0 C0.99 0 1.98 0 3 0 C2.64368618 5.93856358 1.14259215 8.7610685 -3 13 C-3.7425 13.495 -4.485 13.99 -5.25 14.5 C-7.77959497 16.66822426 -7.71420739 18.78483313 -8 22 C-4.01824456 19.89851796 -1.64960955 17.63094642 1 14 C1.66 14.33 2.32 14.66 3 15 C2.67 15.66 2.34 16.32 2 17 C2.66 17 3.32 17 4 17 C4.66 16.01 5.32 15.02 6 14 C6.99 14 7.98 14 9 14 C9 14.66 9 15.32 9 16 C10.65 15.67 12.3 15.34 14 15 C12.625 16.5 12.625 16.5 11 18 C10.34 18 9.68 18 9 18 C8.79375 18.845625 8.5875 19.69125 8.375 20.5625 C6.67734843 24.80662893 4.50896948 28.04011132 1 31 C-1.875 31.4375 -1.875 31.4375 -4 31 C-3.58578031 26.16743695 -1.53586014 24.17320782 2 21 C1.01 20.67 0.02 20.34 -1 20 C-2.68704193 21.30745749 -4.35360035 22.64172029 -6 24 C-6.99 24 -7.98 24 -9 24 C-9.66 22.35 -10.32 20.7 -11 19 C-12.32 19.33 -13.64 19.66 -15 20 C-15.33 18.68 -15.66 17.36 -16 16 C-16.45375 16.66 -16.9075 17.32 -17.375 18 C-17.91125 18.66 -18.4475 19.32 -19 20 C-19.66 20 -20.32 20 -21 20 C-21 19.34 -21 18.68 -21 18 C-22.65 18 -24.3 18 -26 18 C-25.67 16.68 -25.34 15.36 -25 14 C-19.555 13.505 -19.555 13.505 -14 13 C-13.67 14.32 -13.34 15.64 -13 17 C-10.31098459 15.98022509 -9.17357283 15.28508328 -7.65625 12.79296875 C-7.2746875 11.93316406 -6.893125 11.07335937 -6.5 10.1875 C-4.6991342 6.37032741 -3.02219225 3.02219225 0 0 Z " fill="#5D4800" transform="translate(205,225)"/>
<path d="M0 0 C2.125 0.375 2.125 0.375 4 1 C2.84414715 4.91211733 1.64465038 7.8745041 -1 11 C-0.34 12.32 0.32 13.64 1 15 C3.64 14.67 6.28 14.34 9 14 C9 14.66 9 15.32 9 16 C9.99 16 10.98 16 12 16 C12.33 15.01 12.66 14.02 13 13 C13.66 13 14.32 13 15 13 C14.67 14.32 14.34 15.64 14 17 C15.65 16.34 17.3 15.68 19 15 C19 15.66 19 16.32 19 17 C12.96923077 21.06153846 12.96923077 21.06153846 8.0625 20.75 C7.051875 20.5025 6.04125 20.255 5 20 C4.505 18.515 4.505 18.515 4 17 C1.24350734 18.57513866 -1.21998537 20.17905786 -3.6875 22.1875 C-6 24 -6 24 -8 24 C-7.8125 21.6875 -7.8125 21.6875 -7 19 C-2.96551724 16 -2.96551724 16 0 16 C0 15.34 0 14.68 0 14 C-0.94875 14.495 -1.8975 14.99 -2.875 15.5 C-6 17 -6 17 -8 17 C-8 17.66 -8 18.32 -8 19 C-10.3260857 19.38063221 -12.66055264 19.71269945 -15 20 C-15.33 19.67 -15.66 19.34 -16 19 C-20.21571713 18.71256474 -23.18009548 19.20239787 -27 21 C-27.33 19.35 -27.66 17.7 -28 16 C-27.01 15.34 -26.02 14.68 -25 14 C-25.33 15.65 -25.66 17.3 -26 19 C-25.34 18.67 -24.68 18.34 -24 18 C-23.26924352 15.6859378 -22.59861742 13.35171131 -22 11 C-20.68 10.67 -19.36 10.34 -18 10 C-18.875 14.75 -18.875 14.75 -20 17 C-16.37206002 15.13433512 -16.37206002 15.13433512 -14 12 C-13.34 12 -12.68 12 -12 12 C-12.66 13.98 -13.32 15.96 -14 18 C-9.24264187 15.71548551 -7.63329492 13.10516619 -5.3125 8.4375 C-2.15246637 2.15246637 -2.15246637 2.15246637 0 0 Z " fill="#453500" transform="translate(156,225)"/>
<path d="M0 0 C2.375 0.875 2.375 0.875 4.375 2.875 C4.82795333 6.50144504 4.69904802 10.16101738 4.6875 13.8125 C4.70361328 14.82763672 4.71972656 15.84277344 4.73632812 16.88867188 C4.73697266 17.86255859 4.73761719 18.83644531 4.73828125 19.83984375 C4.74275269 21.17970337 4.74275269 21.17970337 4.74731445 22.54663086 C4.375 24.875 4.375 24.875 3.04370117 26.69750977 C1.375 27.875 1.375 27.875 -1.6875 27.75 C-4.625 26.875 -4.625 26.875 -6.625 23.875 C-7.07835153 20.57772481 -6.99529343 17.2626909 -7 13.9375 C-7.02449219 13.03064453 -7.04898438 12.12378906 -7.07421875 11.18945312 C-7.10351626 4.55356822 -7.10351626 4.55356822 -4.765625 1.23828125 C-2.625 -0.125 -2.625 -0.125 0 0 Z " fill="#F0BA00" transform="translate(220.625,117.125)"/>
<path d="M0 0 C0.33 1.32 0.66 2.64 1 4 C2.62580966 3.88601335 4.25067157 3.75844341 5.875 3.625 C6.77992187 3.55539063 7.68484375 3.48578125 8.6171875 3.4140625 C11.17941903 3.20431868 11.17941903 3.20431868 13 1 C15.625 1.375 15.625 1.375 18 2 C18.33 4.31 18.66 6.62 19 9 C18.01 9.33 17.02 9.66 16 10 C15.67 12.97 15.34 15.94 15 19 C15.99 19.33 16.98 19.66 18 20 C12.32822615 20.45374191 9.4024732 19.65083143 5 16 C5 15.34 5 14.68 5 14 C4.360625 13.731875 3.72125 13.46375 3.0625 13.1875 C1 12 1 12 0 9 C-0.06740865 7.43881572 -0.08514456 5.8749748 -0.0625 4.3125 C-0.05347656 3.50425781 -0.04445313 2.69601563 -0.03515625 1.86328125 C-0.02355469 1.24839844 -0.01195313 0.63351563 0 0 Z " fill="#A7881B" transform="translate(109,60)"/>
<path d="M0 0 C0.66 0 1.32 0 2 0 C2.33 1.32 2.66 2.64 3 4 C3.66 4 4.32 4 5 4 C5.33 4.99 5.66 5.98 6 7 C6.33 6.34 6.66 5.68 7 5 C8.32 5 9.64 5 11 5 C10.67 5.66 10.34 6.32 10 7 C9.67 7 9.34 7 9 7 C9 8.98 9 10.96 9 13 C7.9275 13.12375 6.855 13.2475 5.75 13.375 C2.62136385 13.89643936 0.66519576 14.40088254 -2 16 C-2 15.01 -2 14.02 -2 13 C-2.9075 13 -3.815 13 -4.75 13 C-7.16666667 13 -9.58333333 13 -12 13 C-13.051875 13.185625 -14.10375 13.37125 -15.1875 13.5625 C-16.115625 13.706875 -17.04375 13.85125 -18 14 C-18.33 13.67 -18.66 13.34 -19 13 C-18.71269945 10.66055264 -18.38063221 8.3260857 -18 6 C-16.35 5.67 -14.7 5.34 -13 5 C-12.67 5.99 -12.34 6.98 -12 8 C-11.34 7.01 -10.68 6.02 -10 5 C-6 6 -6 6 -2 7 C-2 7.99 -2 8.98 -2 10 C-1.34 6.7 -0.68 3.4 0 0 Z " fill="#5C4B11" transform="translate(156,38)"/>
<path d="M0 0 C1.98 0 3.96 0 6 0 C6.33 1.32 6.66 2.64 7 4 C5.68 4 4.36 4 3 4 C3 23.47 3 42.94 3 63 C2.01 63 1.02 63 0 63 C0 42.21 0 21.42 0 0 Z " fill="#010100" transform="translate(74,119)"/>
<path d="M0 0 C0.25 6.625 0.25 6.625 -2 10 C-1.71281674 11.6752357 -1.36871088 13.34080104 -1 15 C-0.90558049 17.67356298 -0.95463607 20.32352811 -1 23 C-5.83766699 22.58534283 -7.85646376 20.5801385 -11 17 C-12.60540839 13.78918322 -12.48463309 10.48289645 -12 7 C-8.62308636 0.80899165 -6.86886016 -0.14932305 0 0 Z " fill="#D3A813" transform="translate(177,57)"/>
<path d="M0 0 C0 0.66 0 1.32 0 2 C1.65 1.67 3.3 1.34 5 1 C7.22923777 5.32734391 6.92470553 8.28400182 6 13 C4.18885568 13.36103536 2.37603177 13.71365504 0.5625 14.0625 C-0.44683594 14.25972656 -1.45617187 14.45695312 -2.49609375 14.66015625 C-3.32238281 14.77230469 -4.14867187 14.88445313 -5 15 C-6.94090826 13.05909174 -6.39919435 9.52706098 -6.5625 6.9375 C-6.64628906 5.64714844 -6.73007813 4.35679688 -6.81640625 3.02734375 C-6.87699219 2.02832031 -6.93757812 1.02929688 -7 0 C-3.86650268 -1.04449911 -3.01031744 -0.93423645 0 0 Z " fill="#EFBB07" transform="translate(174,41)"/>
<path d="M0 0 C1.65 0 3.3 0 5 0 C4.625 1.9375 4.625 1.9375 4 4 C3.01 4.495 3.01 4.495 2 5 C2 4.01 2 3.02 2 2 C0.74843946 3.04862094 0.74843946 3.04862094 0.6875 5.375 C0.72670721 8.15083198 0.72670721 8.15083198 3 9.8125 C3.66 10.204375 4.32 10.59625 5 11 C4.67 11.99 4.34 12.98 4 14 C0.125 13.125 0.125 13.125 -1 12 C-1.99 12.495 -1.99 12.495 -3 13 C-3.226875 14.051875 -3.45375 15.10375 -3.6875 16.1875 C-4.89125294 20.85806142 -8.00356001 23.48747022 -12 26 C-15.66364457 27.21403124 -19.15986216 27.0738488 -23 27 C-23 26.34 -23 25.68 -23 25 C-21.783125 24.731875 -20.56625 24.46375 -19.3125 24.1875 C-14.50098263 22.96336837 -11.1329893 21.65902005 -8.25 17.4375 C-6.32056989 13.67511128 -5.88786758 11.64338833 -5.9375 7.375 C-5.94652344 6.37210938 -5.95554688 5.36921875 -5.96484375 4.3359375 C-5.97644531 3.56507812 -5.98804688 2.79421875 -6 2 C-4.68 2.66 -3.36 3.32 -2 4 C-1.34 2.68 -0.68 1.36 0 0 Z " fill="#131006" transform="translate(144,55)"/>
<path d="M0 0 C3.48670834 1.1094072 6.77484237 2.26337666 10 4 C8.70268494 6.89401051 7.62285333 9.16400267 5 11 C2.32068888 11.55177892 -0.26287955 11.77564586 -3 12 C-3 8.7 -3 5.4 -3 2 C-2.01 1.67 -1.02 1.34 0 1 C0 0.67 0 0.34 0 0 Z " fill="#E2B20C" transform="translate(127,67)"/>
<path d="M0 0 C1.12329712 0.07069702 1.12329712 0.07069702 2.26928711 0.14282227 C3.07817383 0.19116211 3.88706055 0.23950195 4.72045898 0.28930664 C5.99566406 0.37341797 5.99566406 0.37341797 7.29663086 0.45922852 C8.57763672 0.53753906 8.57763672 0.53753906 9.88452148 0.61743164 C12.00135081 0.74751612 14.1177833 0.88402822 16.23413086 1.02172852 C16.23413086 1.35172852 16.23413086 1.68172852 16.23413086 2.02172852 C11.47302263 2.96535606 6.86110152 3.15858334 2.02563477 3.13525391 C1.22496582 3.13539993 0.42429687 3.13554596 -0.40063477 3.13569641 C-3.03022023 3.13500331 -5.65973364 3.12723927 -8.28930664 3.11938477 C-10.11919109 3.11751844 -11.94907605 3.11609555 -13.77896118 3.11509705 C-18.58263542 3.11128874 -23.38627917 3.10147291 -28.18994141 3.09039307 C-33.09675687 3.08014262 -38.00357729 3.07559165 -42.91040039 3.07055664 C-52.52890333 3.05984908 -62.14738369 3.04279298 -71.76586914 3.02172852 C-71.76586914 2.69172852 -71.76586914 2.36172852 -71.76586914 2.02172852 C-70.9036525 2.01142105 -70.04143585 2.00111359 -69.15309143 1.99049377 C-61.04473766 1.89269254 -52.93645983 1.79020337 -44.82823277 1.68238926 C-40.65927898 1.62712216 -36.49031823 1.57369626 -32.32128906 1.52441406 C-28.30123021 1.47682617 -24.28125925 1.42448565 -20.26130486 1.36878777 C-18.72426467 1.34833885 -17.18720035 1.32963005 -15.65011787 1.3126545 C-13.50444908 1.28866631 -11.35894785 1.25860468 -9.21337891 1.22705078 C-7.37804344 1.20373436 -7.37804344 1.20373436 -5.50563049 1.1799469 C-2.7129842 1.01867446 -2.47796744 0.03049068 0 0 Z " fill="#D7AA0F" transform="translate(182.765869140625,80.978271484375)"/>
<path d="M0 0 C2.61984486 1.30992243 3.03394425 2.25045672 4 5 C3.625 8.25 3.625 8.25 3 11 C3.66 11 4.32 11 5 11 C5 11.99 5 12.98 5 14 C5.639375 14.28875 6.27875 14.5775 6.9375 14.875 C9 16 9 16 10 18 C9.01 18.33 8.02 18.66 7 19 C5.9171875 18.0409375 5.9171875 18.0409375 4.8125 17.0625 C1.52718475 14.65326881 -0.11786532 14.45951527 -4.0703125 14.67578125 C-6.94141279 15.15817259 -8.76386512 16.15847716 -11 18 C-13.12883867 21.08681608 -13.49922447 24.32764611 -14 28 C-15.4648776 25.67342969 -16.01737644 24.33884066 -15.875 21.5625 C-14.56612734 17.72937293 -12.48511375 15.11383531 -9.25 12.6875 C-5.80286602 11.63420906 -2.59507203 11.88016427 1 12 C1.08159574 7.83861737 0.98248524 4.0527516 0 0 Z " fill="#251F0B" transform="translate(179,42)"/>
<path d="M0 0 C4.74886351 0 5.53983734 0.98344794 9 4 C9.99 4.66 10.98 5.32 12 6 C12 6.66 12 7.32 12 8 C13.90930298 7.75552124 13.90930298 7.75552124 15.85717773 7.50610352 C21.01341339 6.93559239 26.10218418 6.8724252 31.28515625 6.90234375 C32.22685165 6.9037587 33.16854706 6.90517365 34.13877869 6.90663147 C37.11338632 6.91217878 40.08791555 6.92472113 43.0625 6.9375 C45.09309786 6.94252182 47.12369692 6.94708353 49.15429688 6.95117188 C54.10289428 6.96213088 59.0514339 6.97935848 64 7 C64.495 7.99 64.495 7.99 65 9 C44.21 9 23.42 9 2 9 C2 8.67 2 8.34 2 8 C3.65 7.67 5.3 7.34 7 7 C6.21625 6.5875 5.4325 6.175 4.625 5.75 C1.94108344 3.9607223 1.11901051 2.95011861 0 0 Z " fill="#5A4C1D" transform="translate(109,74)"/>
<path d="M0 0 C0.66 0.33 1.32 0.66 2 1 C2.75421984 6.88291472 0.45959198 11.37096847 -3 16 C-3.99 16.33 -4.98 16.66 -6 17 C-6.27672202 15.08700862 -6.52042815 13.16922064 -6.75 11.25 C-6.88921875 10.18265625 -7.0284375 9.1153125 -7.171875 8.015625 C-7 5 -7 5 -5.203125 2.671875 C-3 1 -3 1 0 0 Z " fill="#564200" transform="translate(84,244)"/>
<path d="M0 0 C1.875 0.6875 1.875 0.6875 4 2 C4.71247732 3.6476038 5.37400383 5.31763529 6 7 C7.28667172 8.70294787 8.61096733 10.37946188 10 12 C6.41659212 14.45719398 4.30874796 15.17379824 0 15 C-0.38863565 12.87745145 -0.76053209 10.75183172 -1.125 8.625 C-1.33382812 7.44164063 -1.54265625 6.25828125 -1.7578125 5.0390625 C-1.83773437 4.03617187 -1.91765625 3.03328125 -2 2 C-1.34 1.34 -0.68 0.68 0 0 Z " fill="#BE991C" transform="translate(176,65)"/>
<path d="M0 0 C0.66 0 1.32 0 2 0 C2.5345256 1.24420647 3.05208611 2.49570936 3.5625 3.75 C3.85253906 4.44609375 4.14257812 5.1421875 4.44140625 5.859375 C5 8 5 8 4.54774475 9.73248291 C3.83978325 12.66325459 3.83558467 15.4054728 3.79467773 18.42089844 C3.77473251 19.72194519 3.75478729 21.02299194 3.73423767 22.36346436 C3.71725582 23.7787667 3.70037693 25.19407028 3.68359375 26.609375 C3.66301245 28.06097999 3.64201567 29.51257914 3.62062073 30.96417236 C3.56552149 34.77812972 3.51605885 38.59214007 3.46777344 42.40618896 C3.41746951 46.30078834 3.36182993 50.19531109 3.30664062 54.08984375 C3.19920772 61.72649755 3.09772999 69.36321521 3 77 C2.67 77 2.34 77 2 77 C1.98969254 76.13857895 1.97938507 75.2771579 1.96876526 74.38963318 C1.87060495 66.25372189 1.76806494 58.11787995 1.66066074 49.98208523 C1.60560223 45.79984995 1.55221055 41.61760749 1.50268555 37.43530273 C1.4547889 33.39577039 1.40243886 29.35631762 1.34705925 25.31688118 C1.32674974 23.77921607 1.3080187 22.24152923 1.29092598 20.703825 C1.26662738 18.54262359 1.23661064 16.38156901 1.20532227 14.22045898 C1.18977798 12.99246078 1.1742337 11.76446259 1.15821838 10.49925232 C0.99746968 6.94403787 0.56126164 3.51240759 0 0 Z " fill="#6F5600" transform="translate(177,111)"/>
<path d="M0 0 C1.32 0 2.64 0 4 0 C4.33 0.99 4.66 1.98 5 3 C5.66 2.01 6.32 1.02 7 0 C8.32 0.33 9.64 0.66 11 1 C11.33 2.98 11.66 4.96 12 7 C8.18689665 8.47324448 5.90549162 9.30183054 2 8 C0.68 8 -0.64 8 -2 8 C-1.125 1.125 -1.125 1.125 0 0 Z " fill="#6E5A15" transform="translate(139,43)"/>
<path d="M0 0 C1.32 0.33 2.64 0.66 4 1 C4 1.66 4 2.32 4 3 C4.66 3 5.32 3 6 3 C7.49821059 6.37097383 8 8.20442119 8 12 C5.03 12 2.06 12 -1 12 C-2.1875 9.375 -2.1875 9.375 -3 6 C-1.625 2.625 -1.625 2.625 0 0 Z " fill="#DAAC0F" transform="translate(130,52)"/>
<path d="M0 0 C1.98 0 3.96 0 6 0 C6.33 1.32 6.66 2.64 7 4 C5.68 4 4.36 4 3 4 C3 18.85 3 33.7 3 49 C2.67 49 2.34 49 2 49 C1.67 36.13 1.34 23.26 1 10 C0.67 10 0.34 10 0 10 C0 6.7 0 3.4 0 0 Z " fill="#161100" transform="translate(74,119)"/>
<path d="M0 0 C6.8359375 -0.29296875 6.8359375 -0.29296875 9 0 C11.29013653 3.4352048 11.17842973 4.985331 11 9 C10.67 8.01 10.34 7.02 10 6 C9.2575 6.350625 8.515 6.70125 7.75 7.0625 C4.8677274 8.04509293 3.78823655 8.0326802 1 7 C1 8.32 1 9.64 1 11 C0.34 10.67 -0.32 10.34 -1 10 C-0.67 6.7 -0.34 3.4 0 0 Z " fill="#786216" transform="translate(149,59)"/>
<path d="M0 0 C3 1 3 1 4 3 C4.5917588 8.68998842 4.25047199 13.12429202 1 18 C-0.9375 19.75 -0.9375 19.75 -3 21 C-3.61875 21.391875 -4.2375 21.78375 -4.875 22.1875 C-7.65011542 23.24857354 -10.05647088 23.13379678 -13 23 C-13 22.34 -13 21.68 -13 21 C-12.39671875 20.82984375 -11.7934375 20.6596875 -11.171875 20.484375 C-6.50572187 19.06947695 -3.09014748 17.99144049 0 14 C1.86987216 10.26025568 1.30641834 5.53209172 0.5 1.5 C0.335 1.005 0.17 0.51 0 0 Z " fill="#1A160A" transform="translate(187,60)"/>
<path d="M0 0 C6.6 0.66 13.2 1.32 20 2 C20 3.32 20 4.64 20 6 C13.51704023 7.6912069 8.84719867 6.14849159 3 3 C2.01 2.01 1.02 1.02 0 0 Z " fill="#151000" transform="translate(130,164)"/>
<path d="M0 0 C-0.33 5.94 -0.66 11.88 -1 18 C-2.32 17.67 -3.64 17.34 -5 17 C-5.08126087 14.91731407 -5.13930839 12.83371342 -5.1875 10.75 C-5.22230469 9.58984375 -5.25710937 8.4296875 -5.29296875 7.234375 C-4.96527061 3.61658755 -4.19697312 0 0 0 Z " fill="#1F1700" transform="translate(222,123)"/>
<path d="M0 0 C3.3 0 6.6 0 10 0 C8.86634892 4.53460431 7.35806626 5.90024653 4 9 C2.68 8.34 1.36 7.68 0 7 C0 4.69 0 2.38 0 0 Z " fill="#DFAF0C" transform="translate(110,65)"/>
<path d="M0 0 C5.61 0 11.22 0 17 0 C14 3 14 3 11.3125 3.1875 C10.1678125 3.0946875 10.1678125 3.0946875 9 3 C9 4.98 9 6.96 9 9 C10.65 9 12.3 9 14 9 C14 9.33 14 9.66 14 10 C8.25 10.125 8.25 10.125 6 9 C6 7.02 6 5.04 6 3 C4.35 3 2.7 3 1 3 C0.67 2.01 0.34 1.02 0 0 Z " fill="#54440E" transform="translate(125,32)"/>
<path d="M0 0 C0.99 0 1.98 0 3 0 C1.69063102 2.92090003 0.24380538 4.75619462 -2 7 C-2.33 7.99 -2.66 8.98 -3 10 C-2.236875 9.505 -1.47375 9.01 -0.6875 8.5 C2 7 2 7 5 7 C4.5 8.9375 4.5 8.9375 3 11 C0.30341548 11.68790422 -2.2017019 11.81946464 -5 12 C-5.66 13.98 -6.32 15.96 -7 18 C-8.36846684 15.26306631 -7.78370006 13.92495707 -7 11 C-5.87890625 8.61328125 -5.87890625 8.61328125 -4.5625 6.3125 C-4.13066406 5.54550781 -3.69882813 4.77851563 -3.25390625 3.98828125 C-2 2 -2 2 0 0 Z " fill="#3E3000" transform="translate(93,232)"/>
<path d="M0 0 C0.33 0 0.66 0 1 0 C1.25 7.625 1.25 7.625 -1 11 C-4.91211733 9.84414715 -7.8745041 8.64465038 -11 6 C-10.67 5.34 -10.34 4.68 -10 4 C-6.7 4 -3.4 4 0 4 C0 2.68 0 1.36 0 0 Z " fill="#B89418" transform="translate(138,60)"/>
<path d="M0 0 C6.27 0.66 12.54 1.32 19 2 C19.33 3.32 19.66 4.64 20 6 C19 7 19 7 16.0625 7.1875 C13 7 13 7 11 5 C9.0056645 4.42837518 7.0092321 4.05224469 4.97265625 3.66015625 C3 3 3 3 0 0 Z " fill="#1B1500" transform="translate(202,164)"/>
<path d="M0 0 C0 3.3 0 6.6 0 10 C-3.375 9.75 -3.375 9.75 -7 9 C-8.4375 6.9375 -8.4375 6.9375 -9 5 C-3.375 0 -3.375 0 0 0 Z " fill="#E1B10B" transform="translate(123,69)"/>
<path d="M0 0 C1.65 0 3.3 0 5 0 C4.625 1.9375 4.625 1.9375 4 4 C3.01 4.495 3.01 4.495 2 5 C2 4.01 2 3.02 2 2 C0.74843946 3.04862094 0.74843946 3.04862094 0.6875 5.375 C0.72670721 8.15083198 0.72670721 8.15083198 3 9.8125 C3.66 10.204375 4.32 10.59625 5 11 C4.67 11.99 4.34 12.98 4 14 C0.125 13.125 0.125 13.125 -1 12 C-1.99 12.495 -1.99 12.495 -3 13 C-3.33 10.03 -3.66 7.06 -4 4 C-3.34 4 -2.68 4 -2 4 C-1.34 2.68 -0.68 1.36 0 0 Z " fill="#443912" transform="translate(144,55)"/>
<path d="M0 0 C0 3.3 0 6.6 0 10 C-0.66 10 -1.32 10 -2 10 C-2.33 9.34 -2.66 8.68 -3 8 C-3.33 8.66 -3.66 9.32 -4 10 C-6.5 7.6875 -6.5 7.6875 -9 5 C-9 4.01 -9 3.02 -9 2 C-5.53785351 -0.05164237 -4.40610765 0 0 0 Z " fill="#E7B509" transform="translate(124,50)"/>
<path d="M0 0 C1.32 0.33 2.64 0.66 4 1 C2.84414715 4.91211733 1.64465038 7.8745041 -1 11 C-0.67 11.66 -0.34 12.32 0 13 C-1.65 12.67 -3.3 12.34 -5 12 C-4.58525633 6.71201818 -3.64775386 3.88309282 0 0 Z " fill="#5A4500" transform="translate(156,225)"/>
<path d="M0 0 C0.99 0 1.98 0 3 0 C2.83423117 6.46498449 -1.00348694 10.30435802 -5 15 C-5.66 14.67 -6.32 14.34 -7 14 C-5.23570801 9.02790438 -2.6060834 4.56561939 0 0 Z " fill="#5B4600" transform="translate(119,225)"/>
<path d="M0 0 C0.99 0.33 1.98 0.66 3 1 C2.67 1.99 2.34 2.98 2 4 C1.45450153 9.60184967 1.70759441 13.27611371 5 18 C4.67 18.66 4.34 19.32 4 20 C-0.26429972 15.95438231 -1.90210375 14.05582126 -2.1875 8.0625 C-2.15827158 4.88829383 -1.80180892 2.70271338 0 0 Z " fill="#2B240A" transform="translate(108,56)"/>
<path d="M0 0 C0.66 0 1.32 0 2 0 C1.67 1.32 1.34 2.64 1 4 C2.65 3.34 4.3 2.68 6 2 C6 2.66 6 3.32 6 4 C-0.03076923 8.06153846 -0.03076923 8.06153846 -4.9375 7.75 C-5.948125 7.5025 -6.95875 7.255 -8 7 C-7.67 5.68 -7.34 4.36 -7 3 C-6.34 3 -5.68 3 -5 3 C-4.67 2.34 -4.34 1.68 -4 1 C-4 1.66 -4 2.32 -4 3 C-3.01 3 -2.02 3 -1 3 C-0.67 2.01 -0.34 1.02 0 0 Z " fill="#493800" transform="translate(169,238)"/>
<path d="M0 0 C1.30062431 3.81516464 0.89369853 7.27561763 0.5625 11.25 C0.46066406 12.51328125 0.35882813 13.7765625 0.25390625 15.078125 C0.17011719 16.04234375 0.08632812 17.0065625 0 18 C-0.99 18 -1.98 18 -3 18 C-3.0809723 15.56183415 -3.14046972 13.12635616 -3.1875 10.6875 C-3.21263672 9.99720703 -3.23777344 9.30691406 -3.26367188 8.59570312 C-3.33834499 3.44325817 -3.33834499 3.44325817 -1.48828125 1.01953125 C-0.99714844 0.68308594 -0.50601563 0.34664063 0 0 Z " fill="#0A0800" transform="translate(149,123)"/>
<path d="M0 0 C0.66 0 1.32 0 2 0 C1.67 4.95 1.34 9.9 1 15 C0.01 15.33 -0.98 15.66 -2 16 C-2 15.01 -2 14.02 -2 13 C-2.99 13 -3.98 13 -5 13 C-6 10 -6 10 -5.0625 7.8125 C-4.711875 7.214375 -4.36125 6.61625 -4 6 C-3.34 6.33 -2.68 6.66 -2 7 C-2 7.99 -2 8.98 -2 10 C-1.34 6.7 -0.68 3.4 0 0 Z " fill="#30280E" transform="translate(156,38)"/>
<path d="M0 0 C0.33 0.99 0.66 1.98 1 3 C0.01 3.99 -0.98 4.98 -2 6 C-0.081875 6.4640625 -0.081875 6.4640625 1.875 6.9375 C4.10101675 7.47605244 5.94739999 7.9737 8 9 C6 11 6 11 3.6171875 11.1953125 C2.71226563 11.17210938 1.80734375 11.14890625 0.875 11.125 C-0.49011719 11.09792969 -0.49011719 11.09792969 -1.8828125 11.0703125 C-2.58148438 11.04710938 -3.28015625 11.02390625 -4 11 C-3.38461538 3.49230769 -3.38461538 3.49230769 -1.4375 1 C-0.963125 0.67 -0.48875 0.34 0 0 Z " fill="#C09A17" transform="translate(114,53)"/>
<path d="M0 0 C2.61984486 1.30992243 3.03394425 2.25045672 4 5 C3.625 8.25 3.625 8.25 3 11 C3.66 11 4.32 11 5 11 C5 11.99 5 12.98 5 14 C5.639375 14.28875 6.27875 14.5775 6.9375 14.875 C9 16 9 16 10 18 C9.01 18.33 8.02 18.66 7 19 C4.3125 17.1875 4.3125 17.1875 2 15 C2 14.34 2 13.68 2 13 C1.34 12.67 0.68 12.34 0 12 C0.185625 10.948125 0.37125 9.89625 0.5625 8.8125 C0.95079331 5.42880118 0.88247485 3.23574112 0 0 Z " fill="#362E14" transform="translate(179,42)"/>
<path d="M0 0 C-0.33 1.32 -0.66 2.64 -1 4 C-0.34 4.33 0.32 4.66 1 5 C-0.32 5 -1.64 5 -3 5 C-3 4.01 -3 3.02 -3 2 C-3.45375 2.66 -3.9075 3.32 -4.375 4 C-4.91125 4.66 -5.4475 5.32 -6 6 C-6.66 6 -7.32 6 -8 6 C-8 5.34 -8 4.68 -8 4 C-9.65 4 -11.3 4 -13 4 C-12.67 2.68 -12.34 1.36 -12 0 C-10.56359829 -0.19573608 -9.12580496 -0.38127816 -7.6875 -0.5625 C-6.88699219 -0.66691406 -6.08648437 -0.77132812 -5.26171875 -0.87890625 C-3 -1 -3 -1 0 0 Z " fill="#4B3A00" transform="translate(192,239)"/>
<path d="M0 0 C2.27916519 1.7836945 2.95616757 2.80659978 3.60522461 5.67041016 C4.02726198 9.22993129 4.01664929 12.56711847 3.87890625 16.1484375 C3.85529526 16.80582916 3.83168427 17.46322083 3.80735779 18.14053345 C3.73141555 20.2189477 3.64709817 22.29692192 3.5625 24.375 C3.50920952 25.79294796 3.45646973 27.21091673 3.40429688 28.62890625 C3.27589634 32.08620103 3.13998803 35.54315278 3 39 C2.67 39 2.34 39 2 39 C1.97494385 38.1028125 1.9498877 37.205625 1.92407227 36.28125 C1.82833687 32.91900569 1.72914371 29.55689888 1.62768555 26.19482422 C1.58465509 24.74597085 1.54296107 23.2970771 1.50268555 21.84814453 C1.21104975 10.88785478 1.21104975 10.88785478 0 0 Z " fill="#332700" transform="translate(249,111)"/>
<path d="M0 0 C4.74886351 0 5.53983734 0.98344794 9 4 C9.99 4.66 10.98 5.32 12 6 C12 6.66 12 7.32 12 8 C13.98 8 15.96 8 18 8 C18 8.33 18 8.66 18 9 C12.72 9 7.44 9 2 9 C2 8.67 2 8.34 2 8 C3.65 7.67 5.3 7.34 7 7 C6.21625 6.5875 5.4325 6.175 4.625 5.75 C1.94108344 3.9607223 1.11901051 2.95011861 0 0 Z " fill="#433916" transform="translate(109,74)"/>
<path d="M0 0 C-0.54339792 4.56454251 -1.79463821 7.9728176 -4 12 C-6.5654594 9.4345406 -6.54046087 7.52313332 -7 4 C-2.25 0 -2.25 0 0 0 Z " fill="#F1BB00" transform="translate(85,246)"/>
<path d="M0 0 C0.66 0 1.32 0 2 0 C2 0.66 2 1.32 2 2 C3.65 1.67 5.3 1.34 7 1 C5.625 2.5 5.625 2.5 4 4 C3.34 4 2.68 4 2 4 C1.79375 4.845625 1.5875 5.69125 1.375 6.5625 C-0.33861355 10.84653389 -2.86932356 13.67242567 -6 17 C-7.32 16.67 -8.64 16.34 -10 16 C-9.278125 15.649375 -8.55625 15.29875 -7.8125 14.9375 C-4.16423256 12.4242491 -2.43472709 9.68687246 0 6 C-0.66 5.67 -1.32 5.34 -2 5 C-1.01 4.67 -0.02 4.34 1 4 C0.67 2.68 0.34 1.36 0 0 Z " fill="#3A2C00" transform="translate(212,239)"/>
<path d="M0 0 C3.48670834 1.1094072 6.77484237 2.26337666 10 4 C9.34 5.32 8.68 6.64 8 8 C5 8 5 8 2.875 6.25 C1.03354564 4.04025476 0.39987019 2.79909134 0 0 Z " fill="#E1B10C" transform="translate(127,67)"/>
<path d="M0 0 C2.64 0 5.28 0 8 0 C6.52307692 4.67692308 6.52307692 4.67692308 3.875 6.3125 C2.946875 6.6528125 2.946875 6.6528125 2 7 C0 4 0 4 0 0 Z " fill="#E4B40B" transform="translate(165,68)"/>
<path d="M0 0 C0.45375 0.66 0.9075 1.32 1.375 2 C1.91125 2.66 2.4475 3.32 3 4 C3.66 4 4.32 4 5 4 C4.375 5.9375 4.375 5.9375 3 8 C-0.125 8.75 -0.125 8.75 -3 9 C-3.33 6.69 -3.66 4.38 -4 2 C-2.68 2 -1.36 2 0 2 C0 1.34 0 0.68 0 0 Z " fill="#655419" transform="translate(120,39)"/>
<path d="M0 0 C1.12329712 0.07069702 1.12329712 0.07069702 2.26928711 0.14282227 C3.07817383 0.19116211 3.88706055 0.23950195 4.72045898 0.28930664 C5.99566406 0.37341797 5.99566406 0.37341797 7.29663086 0.45922852 C8.57763672 0.53753906 8.57763672 0.53753906 9.88452148 0.61743164 C12.00135081 0.74751612 14.1177833 0.88402822 16.23413086 1.02172852 C16.23413086 1.35172852 16.23413086 1.68172852 16.23413086 2.02172852 C11.21804561 3.03936881 6.4480478 3.14029285 1.35913086 3.08422852 C0.57538086 3.0797168 -0.20836914 3.07520508 -1.01586914 3.07055664 C-2.93256928 3.05886944 -4.84922963 3.0409376 -6.76586914 3.02172852 C-6.12649414 2.71235352 -5.48711914 2.40297852 -4.82836914 2.08422852 C-0.80166198 0.00986422 -0.80166198 0.00986422 0 0 Z " fill="#B9961D" transform="translate(182.765869140625,80.978271484375)"/>
<path d="M0 0 C1.67542976 0.28604898 3.34385343 0.61781233 5 1 C5 2.65 5 4.3 5 6 C3.34385343 6.38218767 1.67542976 6.71395102 0 7 C-1 6 -1 6 -1.125 3.5 C-1 1 -1 1 0 0 Z " fill="#141107" transform="translate(122,61)"/>
<path d="M0 0 C1.134375 0.020625 2.26875 0.04125 3.4375 0.0625 C3.625 2.4375 3.625 2.4375 3.4375 5.0625 C2.4475 5.7225 1.4575 6.3825 0.4375 7.0625 C-1.2125 5.0825 -2.8625 3.1025 -4.5625 1.0625 C-3.5625 0.0625 -3.5625 0.0625 0 0 Z " fill="#E9B70A" transform="translate(184.5625,68.9375)"/>
<path d="M0 0 C1.485 0.99 1.485 0.99 3 2 C3.34057617 4.24658203 3.34057617 4.24658203 3.29296875 7.0078125 C3.28330078 7.99394531 3.27363281 8.98007813 3.26367188 9.99609375 C3.23853516 11.02863281 3.21339844 12.06117188 3.1875 13.125 C3.17396484 14.16527344 3.16042969 15.20554688 3.14648438 16.27734375 C3.11105228 18.85207627 3.06165221 21.4257833 3 24 C2.67 24 2.34 24 2 24 C1.67 19.05 1.34 14.1 1 9 C0.67 9 0.34 9 0 9 C0 6.03 0 3.06 0 0 Z " fill="#E7B300" transform="translate(108,127)"/>
<path d="M0 0 C0.66 0.66 1.32 1.32 2 2 C2.99 2 3.98 2 5 2 C5.66 3.32 6.32 4.64 7 6 C4 8 4 8 0 8 C0 5.36 0 2.72 0 0 Z " fill="#EAB709" transform="translate(177,72)"/>
<path d="M0 0 C0.0825 0.61875 0.165 1.2375 0.25 1.875 C0.78648121 4.15723303 0.78648121 4.15723303 2.875 5 C3.926875 5.495 3.926875 5.495 5 6 C6.75 8.125 6.75 8.125 8 10 C7.34 11.32 6.68 12.64 6 14 C4 11 4 11 4 9 C3.34 9 2.68 9 2 9 C2 8.34 2 7.68 2 7 C1.01 6.67 0.02 6.34 -1 6 C-0.67 4.02 -0.34 2.04 0 0 Z " fill="#393014" transform="translate(132,46)"/>
<path d="M0 0 C0.66 0.33 1.32 0.66 2 1 C1.34 5.29 0.68 9.58 0 14 C-0.66 14 -1.32 14 -2 14 C-2.33 9.71 -2.66 5.42 -3 1 C-2.01 0.67 -1.02 0.34 0 0 Z " fill="#100E06" transform="translate(170,40)"/>
<path d="M0 0 C0.66 0 1.32 0 2 0 C2.625 3.375 2.625 3.375 3 7 C2.34 7.66 1.68 8.32 1 9 C0.01 9 -0.98 9 -2 9 C-2.125 5.625 -2.125 5.625 -2 2 C-1.34 1.34 -0.68 0.68 0 0 Z " fill="#4F4213" transform="translate(174,43)"/>
<path d="M0 0 C6.6 0.66 13.2 1.32 20 2 C20 2.33 20 2.66 20 3 C19.09507812 3.09087891 19.09507812 3.09087891 18.171875 3.18359375 C16.97304687 3.30927734 16.97304687 3.30927734 15.75 3.4375 C14.96109375 3.51871094 14.1721875 3.59992188 13.359375 3.68359375 C11.02054226 3.9276511 11.02054226 3.9276511 8.9375 4.65625 C5.36477904 5.29011985 2.93734466 2.86408411 0 1 C0 0.67 0 0.34 0 0 Z " fill="#513F00" transform="translate(130,164)"/>
<path d="M0 0 C0.66 0 1.32 0 2 0 C2.5345256 1.24420647 3.05208611 2.49570936 3.5625 3.75 C3.85253906 4.44609375 4.14257812 5.1421875 4.44140625 5.859375 C5.49740723 9.906148 3.84337771 12.31324458 2 16 C1.34 10.72 0.68 5.44 0 0 Z " fill="#443400" transform="translate(177,111)"/>
<path d="M0 0 C1.1446875 1.175625 1.1446875 1.175625 2.3125 2.375 C6.17853056 6.15112288 8.71867258 7.29582301 14 8 C14 8.33 14 8.66 14 9 C10.36429416 9.95220867 8.39889273 10.14078567 4.8125 8.875 C1.77295415 6.8486361 0.45229434 5.33173408 -1 2 C-0.67 1.34 -0.34 0.68 0 0 Z " fill="#363018" transform="translate(165,72)"/>
<path d="M0 0 C-1.39153744 4.42761914 -3.52071486 6.9556255 -7 10 C-7.66 10 -8.32 10 -9 10 C-8.42110619 6.71245489 -7.45171589 5.06327505 -5.0625 2.75 C-4.53785156 2.22921875 -4.01320312 1.7084375 -3.47265625 1.171875 C-2 0 -2 0 0 0 Z " fill="#E0AE00" transform="translate(212,245)"/>
<path d="M0 0 C0.33 0.99 0.66 1.98 1 3 C1.66 2.34 2.32 1.68 3 1 C3 3.31 3 5.62 3 8 C0.625 7.6875 0.625 7.6875 -2 7 C-2.66 6.01 -3.32 5.02 -4 4 C-2.68 2.68 -1.36 1.36 0 0 Z " fill="#EFBA07" transform="translate(173,72)"/>
<path d="M0 0 C2.375 -0.1875 2.375 -0.1875 5 0 C5.66 0.99 6.32 1.98 7 3 C5.35 4.32 3.7 5.64 2 7 C1.34 6.67 0.68 6.34 0 6 C0 4.02 0 2.04 0 0 Z " fill="#EDB908" transform="translate(178,57)"/>
<path d="M0 0 C0.33 0 0.66 0 1 0 C1 2.31 1 4.62 1 7 C2.65 7 4.3 7 6 7 C5.34 7.66 4.68 8.32 4 9 C3.01 9 2.02 9 1 9 C0.67 11.31 0.34 13.62 0 16 C-0.66 15.67 -1.32 15.34 -2 15 C-2.19392201 9.47322267 -1.7479503 5.24385089 0 0 Z " fill="#030201" transform="translate(132,35)"/>
<path d="M0 0 C0.66 0.33 1.32 0.66 2 1 C2 3.31 2 5.62 2 8 C-1.69418201 9.231394 -4.2056261 8.64432764 -8 8 C-6.25 6.4375 -6.25 6.4375 -4 5 C-1.75 5.3125 -1.75 5.3125 0 6 C0 4.02 0 2.04 0 0 Z " fill="#2E2711" transform="translate(129,42)"/>
<path d="M0 0 C-0.66 1.98 -1.32 3.96 -2 6 C-1.01 5.67 -0.02 5.34 1 5 C1.99 5.66 2.98 6.32 4 7 C-2.625 8.25 -2.625 8.25 -6 6 C-6 4 -6 4 -4.125 1.875 C-2 0 -2 0 0 0 Z " fill="#644E00" transform="translate(144,237)"/>
<path d="M0 0 C4.29 0.33 8.58 0.66 13 1 C13 1.33 13 1.66 13 2 C10.02148438 2.34179688 10.02148438 2.34179688 7.04296875 2.68359375 C4.80603607 2.97170735 4.80603607 2.97170735 2 4 C-0.00875442 3.72428861 -2.01178687 3.39764263 -4 3 C-4 2.34 -4 1.68 -4 1 C-2.68 1.33 -1.36 1.66 0 2 C0 1.34 0 0.68 0 0 Z " fill="#CEA000" transform="translate(209,203)"/>
<path d="M0 0 C0.66 0 1.32 0 2 0 C1.74535902 2.1270011 1.47077058 4.25162215 1.1875 6.375 C1.03667969 7.55835938 0.88585937 8.74171875 0.73046875 9.9609375 C0 13 0 13 -3 15 C-3.33 14.34 -3.66 13.68 -4 13 C-3.34 13 -2.68 13 -2 13 C-2.02320313 12.39671875 -2.04640625 11.7934375 -2.0703125 11.171875 C-2.08835938 10.37265625 -2.10640625 9.5734375 -2.125 8.75 C-2.14820313 7.96109375 -2.17140625 7.1721875 -2.1953125 6.359375 C-1.9828378 3.79268059 -1.28654105 2.2083933 0 0 Z " fill="#BF9812" transform="translate(172,41)"/>
<path d="M0 0 C1.32 0.66 2.64 1.32 4 2 C3.67 3.32 3.34 4.64 3 6 C1.35 5.67 -0.3 5.34 -2 5 C-1.125 1.125 -1.125 1.125 0 0 Z " fill="#1F1A0A" transform="translate(176,65)"/>
<path d="M0 0 C1.32 1.32 2.64 2.64 4 4 C3.67 4.66 3.34 5.32 3 6 C0.69 6 -1.62 6 -4 6 C-4 5.01 -4 4.02 -4 3 C-3.01 3 -2.02 3 -1 3 C-0.67 2.01 -0.34 1.02 0 0 Z " fill="#EDB908" transform="translate(169,61)"/>
<path d="M0 0 C1.95418308 2.93127462 2.64700993 4.55834679 3 8 C2.34 8.66 1.68 9.32 1 10 C-1.28773145 8.18887927 -1.95209822 7.39279457 -2.3125 4.4375 C-2 2 -2 2 0 0 Z " fill="#D7A90B" transform="translate(146,56)"/>
<path d="M0 0 C0.66 0.33 1.32 0.66 2 1 C1.8125 2.875 1.8125 2.875 1 5 C-1.5625 6.25 -1.5625 6.25 -4 7 C-3.6875 4.625 -3.6875 4.625 -3 2 C-2.01 1.34 -1.02 0.68 0 0 Z " fill="#614B00" transform="translate(152,242)"/>
<path d="M0 0 C0 3 0 3 -1.42578125 4.640625 C-2.04839844 5.17171875 -2.67101562 5.7028125 -3.3125 6.25 C-4.23482422 7.06210938 -4.23482422 7.06210938 -5.17578125 7.890625 C-5.77777344 8.25671875 -6.37976563 8.6228125 -7 9 C-7.99 8.67 -8.98 8.34 -10 8 C-9.67 6.02 -9.34 4.04 -9 2 C-8.67 2 -8.34 2 -8 2 C-8 3.65 -8 5.3 -8 7 C-4.04 3.535 -4.04 3.535 0 0 Z " fill="#5C4700" transform="translate(119,240)"/>
<path d="M0 0 C1.35303489 2.70606979 0.7884698 4.1328371 0 7 C-0.66 7.66 -1.32 8.32 -2 9 C-2 9.66 -2 10.32 -2 11 C-3.65 11.33 -5.3 11.66 -7 12 C-4.69 8.04 -2.38 4.08 0 0 Z " fill="#2A2000" transform="translate(152,231)"/>
<path d="M0 0 C6.27 0.66 12.54 1.32 19 2 C19 2.33 19 2.66 19 3 C16.77308629 3.25011345 14.54324878 3.47428352 12.3125 3.6875 C11.07113281 3.81511719 9.82976562 3.94273437 8.55078125 4.07421875 C4.69788082 3.99368508 3.01319946 3.33335713 0 1 C0 0.67 0 0.34 0 0 Z " fill="#3C2F00" transform="translate(202,164)"/>
<path d="M0 0 C3.51716303 3.51716303 3.54676163 5.19567333 4 10 C3.34 10 2.68 10 2 10 C2 11.65 2 13.3 2 15 C1.67 15 1.34 15 1 15 C0.67 10.05 0.34 5.1 0 0 Z " fill="#281F00" transform="translate(110,115)"/>
<path d="M0 0 C0.33 0 0.66 0 1 0 C1.12117188 0.67546875 1.24234375 1.3509375 1.3671875 2.046875 C1.53476563 2.93890625 1.70234375 3.8309375 1.875 4.75 C2.03742188 5.63171875 2.19984375 6.5134375 2.3671875 7.421875 C2.96796264 9.86947744 3.77997117 11.80599857 5 14 C0.26168224 11.69158879 0.26168224 11.69158879 -0.875 8.6875 C-1.01625815 5.65044985 -0.62163422 2.97003018 0 0 Z " fill="#19150A" transform="translate(108,62)"/>
<path d="M0 0 C3.3 0 6.6 0 10 0 C7.04816899 2.95183101 4.04488053 3.08663988 0 4 C0 2.68 0 1.36 0 0 Z " fill="#F9C203" transform="translate(110,65)"/>
<path d="M0 0 C3.55780196 0.60990891 6.6828589 1.5783681 10 3 C10 3.33 10 3.66 10 4 C6.7 4 3.4 4 0 4 C0 2.68 0 1.36 0 0 Z " fill="#F7C004" transform="translate(110,60)"/>
<path d="M0 0 C0.99 0.33 1.98 0.66 3 1 C2.4409112 4.24271506 1.5867822 5.93057424 -1 8 C-1.66 8 -2.32 8 -3 8 C-1.125 2.25 -1.125 2.25 0 0 Z " fill="#F7C004" transform="translate(130,52)"/>
<path d="M0 0 C0 2.64 0 5.28 0 8 C-1.32 7.67 -2.64 7.34 -4 7 C-4.1875 4.625 -4.1875 4.625 -4 2 C-1 0 -1 0 0 0 Z " fill="#D7A90D" transform="translate(168,43)"/>
<path d="M0 0 C0.33 0 0.66 0 1 0 C1 2.97 1 5.94 1 9 C0.34 8.34 -0.32 7.68 -1 7 C-1.33 9.31 -1.66 11.62 -2 14 C-2.33 14 -2.66 14 -3 14 C-3.125 6.375 -3.125 6.375 -2 3 C-1.34 3 -0.68 3 0 3 C0 2.01 0 1.02 0 0 Z " fill="#D0A100" transform="translate(110,167)"/>
<path d="M0 0 C1.32 0 2.64 0 4 0 C4.66 2.64 5.32 5.28 6 8 C1.3125 4.38671875 1.3125 4.38671875 0 3 C0 2.01 0 1.02 0 0 Z " fill="#F5BF04" transform="translate(115,52)"/>
<path d="M0 0 C1.41377341 2.63904371 2.37240135 5.07120629 3 8 C1.68 8 0.36 8 -1 8 C-1.33 5.69 -1.66 3.38 -2 1 C-1.34 0.67 -0.68 0.34 0 0 Z " fill="#A88717" transform="translate(178,42)"/>
<path d="M0 0 C0.33 0.66 0.66 1.32 1 2 C0.06553465 4.03144641 -0.93224776 6.03533587 -2 8 C-3.32 7.67 -4.64 7.34 -6 7 C-6 6.34 -6 5.68 -6 5 C-4.04072937 3.2856382 -2.04119788 1.61594832 0 0 Z " fill="#F9C203" transform="translate(120,69)"/>
<path d="M0 0 C0.78375 0.04125 1.5675 0.0825 2.375 0.125 C2 2.0625 2 2.0625 1.375 4.125 C0.385 4.62 0.385 4.62 -0.625 5.125 C-0.625 4.135 -0.625 3.145 -0.625 2.125 C-1.945 3.775 -3.265 5.425 -4.625 7.125 C-4.75 4.75 -4.75 4.75 -4.625 2.125 C-2.625 0.125 -2.625 0.125 0 0 Z " fill="#211C0A" transform="translate(146.625,54.875)"/>
<path d="M0 0 C0.66 0 1.32 0 2 0 C0.6062718 4.43458973 -1.60582235 6.87378374 -5 10 C-3.85569823 6.12697862 -2.76679902 2.99736561 0 0 Z " fill="#CD9F00" transform="translate(156,227)"/>
<path d="M0 0 C0.33 0.66 0.66 1.32 1 2 C-0.98 4.97 -2.96 7.94 -5 11 C-5.33 10.34 -5.66 9.68 -6 9 C-5.0390625 7.08984375 -5.0390625 7.08984375 -3.625 4.9375 C-3.16351563 4.22464844 -2.70203125 3.51179687 -2.2265625 2.77734375 C-1 1 -1 1 0 0 Z " fill="#DBAA00" transform="translate(119,227)"/>
<path d="M0 0 C0.66 0 1.32 0 2 0 C0.6062718 4.43458973 -1.60582235 6.87378374 -5 10 C-3.85569823 6.12697862 -2.76679902 2.99736561 0 0 Z " fill="#D5A500" transform="translate(205,227)"/>
<path d="M0 0 C1.485 0.99 1.485 0.99 3 2 C2.67 4.97 2.34 7.94 2 11 C1.34 11 0.68 11 0 11 C0 7.37 0 3.74 0 0 Z " fill="#EEB801" transform="translate(108,159)"/>
<path d="M0 0 C0.99 0 1.98 0 3 0 C3.33 1.98 3.66 3.96 4 6 C3.34 6 2.68 6 2 6 C1.67 7.32 1.34 8.64 1 10 C0.67 6.7 0.34 3.4 0 0 Z " fill="#E8B300" transform="translate(175,115)"/>
<path d="M0 0 C-3.83325617 2.70582788 -6.32538149 3.32613618 -11 3 C-11 2.34 -11 1.68 -11 1 C-3.57142857 -1.42857143 -3.57142857 -1.42857143 0 0 Z " fill="#131108" transform="translate(185,80)"/>
<path d="M0 0 C0.66 0 1.32 0 2 0 C7 5.47619048 7 5.47619048 7 8 C5.68 8 4.36 8 3 8 C2.01 5.36 1.02 2.72 0 0 Z " fill="#F7C104" transform="translate(126,69)"/>
<path d="M0 0 C0.99 0.33 1.98 0.66 3 1 C1.515 4.465 1.515 4.465 0 8 C-0.66 8 -1.32 8 -2 8 C-1.125 1.125 -1.125 1.125 0 0 Z " fill="#2F2810" transform="translate(139,43)"/>
<path d="M0 0 C0.99 1.32 1.98 2.64 3 4 C2.01 5.485 2.01 5.485 1 7 C-0.32 6.67 -1.64 6.34 -3 6 C-2.67 4.68 -2.34 3.36 -2 2 C-1.34 2 -0.68 2 0 2 C0 1.34 0 0.68 0 0 Z " fill="#8F6F00" transform="translate(164,239)"/>
<path d="M0 0 C0.33 1.32 0.66 2.64 1 4 C-1.97 4 -4.94 4 -8 4 C-5.53721199 1.53721199 -3.29323018 1.00228745 0 0 Z " fill="#F9C303" transform="translate(137,60)"/>
<path d="M0 0 C0.66 0.66 1.32 1.32 2 2 C-1.63 2.33 -5.26 2.66 -9 3 C-9 2.34 -9 1.68 -9 1 C-5.98675805 -0.50662097 -3.31713623 -0.17770373 0 0 Z " fill="#19150A" transform="translate(179,54)"/>
<path d="M0 0 C0.66 1.32 1.32 2.64 2 4 C1.54625 4.433125 1.0925 4.86625 0.625 5.3125 C-1.20024334 7.10798342 -1.20024334 7.10798342 -3 10 C-4 7 -4 7 -3.22265625 5.17578125 C-2.1484375 3.45052083 -1.07421875 1.72526042 0 0 Z " fill="#312600" transform="translate(199,234)"/>
<path d="M0 0 C2.64 0 5.28 0 8 0 C8 1.32 8 2.64 8 4 C2.25 2.25 2.25 2.25 0 0 Z " fill="#FAC303" transform="translate(130,66)"/>
<path d="M0 0 C0.66 0 1.32 0 2 0 C2 0.99 2 1.98 2 3 C2.639375 3.28875 3.27875 3.5775 3.9375 3.875 C6 5 6 5 7 7 C6.01 7.33 5.02 7.66 4 8 C1.10067643 5.60490662 0.49831724 3.68754757 0 0 Z " fill="#5C4D1B" transform="translate(182,53)"/>
<path d="M0 0 C3.36720387 1.39332574 4.9859524 2.9789286 7 6 C1.25 4.125 1.25 4.125 -1 3 C-0.67 2.01 -0.34 1.02 0 0 Z " fill="#FCC302" transform="translate(113,56)"/>
<path d="M0 0 C1.32 0 2.64 0 4 0 C2.25 5.75 2.25 5.75 0 8 C0 5.36 0 2.72 0 0 Z " fill="#FCC402" transform="translate(125,51)"/>
<path d="M0 0 C0.66 0.99 1.32 1.98 2 3 C0.35 4.65 -1.3 6.3 -3 8 C-3.66 7.34 -4.32 6.68 -5 6 C-4.360625 5.38125 -3.72125 4.7625 -3.0625 4.125 C-0.96116416 2.17402388 -0.96116416 2.17402388 0 0 Z " fill="#2D250B" transform="translate(188,72)"/>
<path d="M0 0 C0.8353125 0.556875 0.8353125 0.556875 1.6875 1.125 C1.6875 1.455 1.6875 1.785 1.6875 2.125 C-2.7675 2.62 -2.7675 2.62 -7.3125 3.125 C-7.3125 2.465 -7.3125 1.805 -7.3125 1.125 C-2.88173077 -1.09038462 -2.88173077 -1.09038462 0 0 Z " fill="#0A0804" transform="translate(124.3125,46.875)"/>
<path d="M0 0 C1.32 0.33 2.64 0.66 4 1 C4 2.32 4 3.64 4 5 C2.68 5.33 1.36 5.66 0 6 C0 4.02 0 2.04 0 0 Z " fill="#524515" transform="translate(149,59)"/>
<path d="M0 0 C0.99 0.33 1.98 0.66 3 1 C1.515 4.96 1.515 4.96 0 9 C-0.33 9 -0.66 9 -1 9 C-1.125 2.25 -1.125 2.25 0 0 Z " fill="#D7AA0F" transform="translate(163,57)"/>
<path d="M0 0 C1.32 1.32 2.64 2.64 4 4 C3.67 4.66 3.34 5.32 3 6 C2.01 5.34 1.02 4.68 0 4 C-0.33 4.66 -0.66 5.32 -1 6 C-1.66 6 -2.32 6 -3 6 C-1.125 1.125 -1.125 1.125 0 0 Z " fill="#C19A16" transform="translate(169,58)"/>
<path d="M0 0 C1.32 0.33 2.64 0.66 4 1 C4 2.32 4 3.64 4 5 C3.01 5 2.02 5 1 5 C0.67 3.35 0.34 1.7 0 0 Z " fill="#201800" transform="translate(143,176)"/>
<path d="M0 0 C0.86625 0.3403125 0.86625 0.3403125 1.75 0.6875 C1.75 1.3475 1.75 2.0075 1.75 2.6875 C-0.89 2.6875 -3.53 2.6875 -6.25 2.6875 C-2.80384615 -0.38942308 -2.80384615 -0.38942308 0 0 Z " fill="#F0BC08" transform="translate(187.25,65.3125)"/>
<path d="M0 0 C0 3.3 0 6.6 0 10 C-0.66 10 -1.32 10 -2 10 C-2.66 7.03 -3.32 4.06 -4 1 C-2 0 -2 0 0 0 Z " fill="#372E10" transform="translate(163,57)"/>
<path d="M0 0 C0.66 0.33 1.32 0.66 2 1 C0.84826645 3.46800047 -0.04783565 5.04783565 -2 7 C-2.33 5.02 -2.66 3.04 -3 1 C-2.01 0.67 -1.02 0.34 0 0 Z " fill="#352C0E" transform="translate(170,40)"/>
</svg>
