<svg id="Layer_1" data-name="Layer 1" xmlns="http://www.w3.org/2000/svg" viewBox="0 0 208 111.18"><defs><style>.cls-1{fill:#fff;}.cls-2{fill:#fcbf29;}</style></defs><path class="cls-1" d="M102.8,84c-1-.09-2-.15-2.89-.25-9.54-.95-17.06-5.25-22.29-13.41a62.7,62.7,0,0,1-6.37-14.47c-.87-2.65-1.84-5.28-2.79-7.91a9.05,9.05,0,0,0-2.56-3.69c-.31-.27-.65-.49-1-.74a24.52,24.52,0,0,1,15-1.25,38.06,38.06,0,0,0-.69-4.39,34.31,34.31,0,0,0-1.6-4A26.18,26.18,0,0,1,88.3,35.3a18.36,18.36,0,0,1,2.33,1,2.27,2.27,0,0,0,1.84.11,13.75,13.75,0,0,0,6-4c1.83-1.94,3.44-4.07,5.13-6.13.28-.33.49-.71.8-1.16.23.32.43.58.6.84a34.59,34.59,0,0,0,6.82,7.8,10.92,10.92,0,0,0,4.94,2.7,2.17,2.17,0,0,0,1.23-.16,26.4,26.4,0,0,1,13-2.49l.35.1A14.42,14.42,0,0,0,129,42.21a25.57,25.57,0,0,1,14.71,1.07,2.19,2.19,0,0,1-.19.28c-2.58,2.11-3.63,5.09-4.64,8.1-1.6,4.79-3,9.65-5.24,14.21-2.67,5.45-6.18,10.17-11.39,13.46a29.67,29.67,0,0,1-11.94,4.21c-1.39.19-2.8.29-4.31.44m0-3.23c.87-.1,1.71-.16,2.53-.29a16.16,16.16,0,0,0,11-6.64c2.72-3.8,3.88-8.17,4.67-12.67a126.26,126.26,0,0,0,1.27-14.27c.18-3,.5-6,.76-9,0-.23.07-.47.11-.73A21,21,0,0,0,110.4,47.52a33.1,33.1,0,0,0-4.3,15.89c-.21,5.57-.13,11.15-.17,16.73A5.88,5.88,0,0,0,106,80.75ZM82.36,37.17c.11.67.26,1.27.3,1.87.27,3.69.55,7.38.76,11.07.31,5.54.73,11.07,2.33,16.43A21.38,21.38,0,0,0,91,75.92c3.25,3.22,7.26,4.55,11.78,4.8,0-.28,0-.51,0-.73,0-4.29,0-8.58,0-12.88a47,47,0,0,0-1.67-13C99.3,47.89,96,42.82,90.2,39.63A20.68,20.68,0,0,0,82.36,37.17ZM94.91,38.9c4.85,3.83,7.71,8.88,9.45,14.71,1.73-5.83,4.6-10.88,9.46-14.71-3.93-1.93-6.75-5-9.46-8.26C101.64,33.93,98.82,37,94.91,38.9Zm-8.84,36c-.39-.68-.82-1.35-1.18-2.06A39.3,39.3,0,0,1,81,58.77c-.4-3.69-.57-7.42-.85-11.13,0-.71.09-1.63-.3-2s-1.32-.42-2-.54a21.15,21.15,0,0,0-7.1,0,2.12,2.12,0,0,0,.05.28c1.25,3.42,2.55,6.81,3.73,10.25a58.19,58.19,0,0,0,6,13.29A22.21,22.21,0,0,0,86.07,74.91ZM138,45.05a20.58,20.58,0,0,0-8.93.43c-.16,0-.32.36-.34.56-.08,1-.11,2-.16,2.92a98.57,98.57,0,0,1-1.37,13.71,33.58,33.58,0,0,1-4.45,12.12s0,.14,0,.27l.35-.27a30,30,0,0,0,7.69-10.27c2.14-4.37,3.48-9,5.06-13.61C136.45,49,137.22,47,138,45.05Z"/><polygon class="cls-2" points="0 47.91 10 68.91 0 91.91 208 91.91 198 68.91 208 47.91 0 47.91"/><path d="M56.05,81.34l-4.52-22.1h2.65l3.2,16.29,3-16.29H63l-4.47,22.1Z"/><path d="M66.15,81.34V59.24H74v2.29H69v7.31h4.07V71H69v8.1h5.07v2.21Z"/><path d="M82.15,81.62a4.82,4.82,0,0,1-3-.89,5,5,0,0,1-1.65-2.58A14.21,14.21,0,0,1,77,74.08V66.69a16,16,0,0,1,.46-4.14A4.71,4.71,0,0,1,79.06,60a5.39,5.39,0,0,1,3.32-.9,6,6,0,0,1,3.06.69,4,4,0,0,1,1.69,2.13,10.67,10.67,0,0,1,.52,3.62v.82H85v-.68a13.75,13.75,0,0,0-.17-2.37,2.29,2.29,0,0,0-.72-1.36,2.59,2.59,0,0,0-1.68-.45,2.33,2.33,0,0,0-1.82.63,3.08,3.08,0,0,0-.7,1.7,20,20,0,0,0-.13,2.45v8.18A14,14,0,0,0,80,77.06a2.68,2.68,0,0,0,.81,1.58,2.51,2.51,0,0,0,1.7.52,2.38,2.38,0,0,0,1.7-.57,3.13,3.13,0,0,0,.83-1.7,14.4,14.4,0,0,0,.22-2.78V72.58H82.68V70.4H87.8V81.34H86l-.28-2.54a4.63,4.63,0,0,1-1.25,2A3.31,3.31,0,0,1,82.15,81.62Z"/><path d="M98.42,81.34V59.24h5a5.18,5.18,0,0,1,2.91.72A4.08,4.08,0,0,1,108,62.05a9.71,9.71,0,0,1,.5,3.3,7.55,7.55,0,0,1-.56,3,4.29,4.29,0,0,1-1.67,2,5.08,5.08,0,0,1-2.75.69h-2.22V81.34Zm2.83-12.5h1.3a5,5,0,0,0,1.92-.29,1.86,1.86,0,0,0,1-1.06,5.87,5.87,0,0,0,.3-2.11,10.66,10.66,0,0,0-.21-2.43,1.67,1.67,0,0,0-.89-1.17,5,5,0,0,0-2.1-.33h-1.32Z"/><path d="M116.6,81.59a5.57,5.57,0,0,1-3.28-.87,4.89,4.89,0,0,1-1.75-2.5,12.72,12.72,0,0,1-.52-3.81V66a11.6,11.6,0,0,1,.54-3.75,4.67,4.67,0,0,1,1.75-2.4,5.7,5.7,0,0,1,3.26-.83,5.57,5.57,0,0,1,3.25.84,4.78,4.78,0,0,1,1.74,2.41,11.39,11.39,0,0,1,.54,3.73v8.41a11.9,11.9,0,0,1-.54,3.77,5,5,0,0,1-1.74,2.49A5.36,5.36,0,0,1,116.6,81.59Zm0-2.43a2.21,2.21,0,0,0,2.47-1.92,9.72,9.72,0,0,0,.21-2.15V65.41a9.32,9.32,0,0,0-.21-2.12,2.38,2.38,0,0,0-.77-1.36,2.59,2.59,0,0,0-1.7-.48,2.64,2.64,0,0,0-1.71.48,2.35,2.35,0,0,0-.79,1.36,10,10,0,0,0-.2,2.12v9.68a10.42,10.42,0,0,0,.2,2.15,2.52,2.52,0,0,0,.79,1.42A2.58,2.58,0,0,0,116.6,79.16Z"/><path d="M126.05,81.34V59.24h2.77v22.1Z"/><path d="M133.1,81.34V59.24H135l5.75,14.68V59.24h2.35v22.1h-1.8L135.5,66.25V81.34Z"/><path d="M149.52,81.34V61.53H146.1V59.24h9.57v2.29h-3.32V81.34Z"/><path d="M182.86,77.47a.81.81,0,0,1-1.41,0c-.53-.75-1.17-1.76-1.93-3a35.15,35.15,0,0,1-2.05-3.89,10,10,0,0,1-.94-3.54,7.08,7.08,0,0,1,1.64-4.64,5.11,5.11,0,0,1,8,0A7.13,7.13,0,0,1,187.78,67a10,10,0,0,1-.94,3.54,35.15,35.15,0,0,1-2.05,3.89C184,75.71,183.38,76.72,182.86,77.47Zm-.71-12.64a1.81,1.81,0,0,0-1.61,1.09,2.39,2.39,0,0,0,0,2.18,1.74,1.74,0,0,0,3.23,0,2.39,2.39,0,0,0,0-2.18A1.82,1.82,0,0,0,182.15,64.83Z"/><path d="M27.86,77.47a.81.81,0,0,1-1.41,0c-.53-.75-1.17-1.76-1.93-3a35.15,35.15,0,0,1-2.05-3.89A10,10,0,0,1,21.53,67a7.08,7.08,0,0,1,1.64-4.64,5.11,5.11,0,0,1,8,0A7.13,7.13,0,0,1,32.78,67a10,10,0,0,1-.94,3.54,35.15,35.15,0,0,1-2.05,3.89C29,75.71,28.38,76.72,27.86,77.47Zm-.71-12.64a1.81,1.81,0,0,0-1.61,1.09,2.39,2.39,0,0,0,0,2.18,1.74,1.74,0,0,0,3.23,0,2.39,2.39,0,0,0,0-2.18A1.82,1.82,0,0,0,27.15,64.83Z"/><path d="M47.2,43.31a3.46,3.46,0,0,1-2.27-.83l-.59-.5a3.47,3.47,0,0,1-1.17-2,3.55,3.55,0,0,1-2.24-.84l-.55-.48a3.5,3.5,0,0,1-.68-4.55c.71-1.1,1.07-1.64,1.81-2.71A3.52,3.52,0,0,1,44,29.86l.39,0a3.5,3.5,0,0,1,2.37.93l2.14,2a4.38,4.38,0,0,1,.52,0,3.53,3.53,0,0,1,2.42,1l.55.53a3.5,3.5,0,0,1,.12,4.95c-1.09,1.15-1.61,1.72-2.65,2.94A3.49,3.49,0,0,1,47.2,43.31Z"/><path d="M44.39,33.34l4,3.73,1-.87.56.53c-1.14,1.2-1.7,1.81-2.78,3.08l-.59-.5.77-1.08-3.24-2.87c-.38.42-.56.63-.93,1.07L42.65,36c.68-1.06,1-1.58,1.74-2.61m0-7a6.49,6.49,0,0,0-.77.05,7,7,0,0,0-5,3c-.77,1.1-1.15,1.68-1.88,2.82a7,7,0,0,0,1.35,9.09l.56.48a6.83,6.83,0,0,0,2,1.18,6.9,6.9,0,0,0,1.45,1.71l.18.15.4.35a7,7,0,0,0,4.55,1.67,5.15,5.15,0,0,0,.55,0,7,7,0,0,0,4.77-2.43c1-1.17,1.47-1.69,2.53-2.8a7,7,0,0,0-.24-9.89l-.56-.53a6.85,6.85,0,0,0-4-1.88L49.13,28.2a7,7,0,0,0-4.74-1.86Z"/><path d="M51.91,37.47a6,6,0,0,1-4.33-1.95l-1-1a5.79,5.79,0,0,1-1.79-4.62A6.73,6.73,0,0,1,51.22,24a5.8,5.8,0,0,1,4.5,2.21l.91,1.07a6,6,0,0,1,1.56,4.51A6.58,6.58,0,0,1,52,37.47Z"/><path d="M51.22,27.46h0a2.4,2.4,0,0,1,1.82,1L54,29.51a2.59,2.59,0,0,1,.73,1.92,2.66,2.66,0,0,1-1,1.73,2.73,2.73,0,0,1-1.82.81h0a2.57,2.57,0,0,1-1.83-.89l-1-1a2.45,2.45,0,0,1-.82-1.9,2.94,2.94,0,0,1,1-1.87,2.85,2.85,0,0,1,1.92-.84m1.19,5.27a1,1,0,0,0,.68-.3.94.94,0,0,0,.34-.78,1.83,1.83,0,0,0-.55-1l-1.1-1.24a1.72,1.72,0,0,0-1-.64l-.14,0A1.08,1.08,0,0,0,50,29a1,1,0,0,0-.37.83,1.79,1.79,0,0,0,.56,1l1.14,1.21a1.76,1.76,0,0,0,1,.63l.15,0M51.22,20.46h0a10.25,10.25,0,0,0-9.91,9.17A9.36,9.36,0,0,0,44.09,37l.41.42.57.59a9.6,9.6,0,0,0,6.84,3H52a9.64,9.64,0,0,0,7.3-16l-.46-.54-.46-.53a9.35,9.35,0,0,0-7.06-3.44Z"/><path d="M58.12,32.31l-.6,0a6,6,0,0,1-4.11-2.39l-.85-1.08A5.85,5.85,0,0,1,51.2,24a6.18,6.18,0,0,1,2.54-3.93,6.36,6.36,0,0,1,3.8-1.33,5.65,5.65,0,0,1,.71,0,5.84,5.84,0,0,1,4.14,2.65l.8,1.16A5.86,5.86,0,0,1,61.84,31,6.15,6.15,0,0,1,58.12,32.31Z"/><path d="M57.54,22.28l.28,0a2.42,2.42,0,0,1,1.69,1.17l.8,1.16a2.63,2.63,0,0,1,.54,2,2.61,2.61,0,0,1-1.1,1.61,2.72,2.72,0,0,1-1.63.6h-.23a2.55,2.55,0,0,1-1.74-1.09c-.35-.44-.52-.66-.88-1.1a2.48,2.48,0,0,1-.62-2,2.77,2.77,0,0,1,1.18-1.72,2.85,2.85,0,0,1,1.71-.64m1,5.36a1.06,1.06,0,0,0,.6-.22.93.93,0,0,0,.41-.74,1.88,1.88,0,0,0-.45-1.07c-.38-.54-.58-.81-1-1.35a1.78,1.78,0,0,0-.88-.75l-.23,0a1.06,1.06,0,0,0-.63.23,1,1,0,0,0-.45.78,1.83,1.83,0,0,0,.46,1.05l1,1.33a1.87,1.87,0,0,0,.89.73,1,1,0,0,0,.24,0m-1-12.36a9.85,9.85,0,0,0-5.88,2,9.66,9.66,0,0,0-3.91,6.15,9.4,9.4,0,0,0,2,7.5l.87,1.11a9.58,9.58,0,0,0,6.5,3.7,7.72,7.72,0,0,0,1,.05,9.7,9.7,0,0,0,5.8-2,9.35,9.35,0,0,0,2.15-13.17l-.57-.82-.23-.34a9.41,9.41,0,0,0-6.59-4.15,8.62,8.62,0,0,0-1.14-.07Z"/><path d="M64.34,27.5a3.55,3.55,0,0,1-2.41-.95A3.61,3.61,0,0,1,61,25.18a4,4,0,0,1-.74-.25,4.7,4.7,0,0,1-2.1-1.78L58,22.86a4.67,4.67,0,0,1-.75-2.66,4.92,4.92,0,0,1,.83-2.56,6,6,0,0,1,4.09-2.51c.2,0,.4,0,.6,0a3.52,3.52,0,0,1,1.86-.77l.87-.08h.31a3.48,3.48,0,0,1,2.55,1.1,3.55,3.55,0,0,1,.78,1.32A5.23,5.23,0,0,1,70,17,4.74,4.74,0,0,1,71.89,19l.15.29a4.74,4.74,0,0,1-.36,5,5.72,5.72,0,0,1-4.12,2.27H67.4a3.47,3.47,0,0,1-1.87.82l-.75.09Z"/><path d="M65.83,17.73c-.38,2.48-.52,3.72-.71,6.18l-.78.09c.17-2.46.3-3.7.66-6.2l.83-.07m-3,.86a1.23,1.23,0,0,1,.55.12,1.17,1.17,0,0,1,.52.49l.17.29a1.21,1.21,0,0,1,.17.68,1.32,1.32,0,0,1-.25.69,2,2,0,0,1-.68.61,1.93,1.93,0,0,1-.85.33l-.23,0a1.25,1.25,0,0,1-.51-.1,1.18,1.18,0,0,1-.53-.46L61,21a1.17,1.17,0,0,1-.19-.68,1.4,1.4,0,0,1,.24-.71,2.48,2.48,0,0,1,1.59-1l.19,0M62.52,21a.73.73,0,0,0,.38-.12.65.65,0,0,0,.32-.4.55.55,0,0,0-.08-.45L63,19.73a.63.63,0,0,0-.37-.29h-.14a.73.73,0,0,0-.38.12.6.6,0,0,0-.23.87l.17.28a.6.6,0,0,0,.38.28h.12m5.15-1.07a1.23,1.23,0,0,1,.63.16,1.13,1.13,0,0,1,.48.51l.16.29a1.24,1.24,0,0,1,.15.69,1.33,1.33,0,0,1-.26.67,2,2,0,0,1-.66.56,1.9,1.9,0,0,1-.83.26h-.11a1.21,1.21,0,0,1-.6-.15,1.24,1.24,0,0,1-.51-.48l-.17-.3a1.24,1.24,0,0,1-.17-.67,1.34,1.34,0,0,1,.26-.69,2,2,0,0,1,.69-.59,2.15,2.15,0,0,1,.85-.27h.09m-.16,2.34a.68.68,0,0,0,.32-.09.58.58,0,0,0,.33-.37.64.64,0,0,0-.09-.45l-.16-.3a.58.58,0,0,0-.35-.3.41.41,0,0,0-.16,0,.77.77,0,0,0-.66.48.64.64,0,0,0,.07.45L67,22a.61.61,0,0,0,.36.29l.17,0M65.83,10.73l-.62,0-.91.09a7.07,7.07,0,0,0-2.67.83,9.57,9.57,0,0,0-6.44,4,8.49,8.49,0,0,0-1.42,4.39,8.3,8.3,0,0,0,1.3,4.68l.14.2,0,.08a8.13,8.13,0,0,0,3.33,3,7,7,0,0,0,5.75,3,8.65,8.65,0,0,0,.88-.05l.71-.09A6.89,6.89,0,0,0,68.66,30a9.25,9.25,0,0,0,2.89-1,8.94,8.94,0,0,0,3-2.61,8.21,8.21,0,0,0,.62-8.68L75,17.37A8.21,8.21,0,0,0,71.75,14a7,7,0,0,0-5.92-3.26Z"/><path d="M77.08,21.85a6.64,6.64,0,0,1-4.67-2A7.06,7.06,0,0,1,71,17.65a6.92,6.92,0,0,1-.58-2.73A6.4,6.4,0,0,1,71,12.26a6.61,6.61,0,0,1,1.63-2.21A7.45,7.45,0,0,1,75,8.65a7.29,7.29,0,0,1,2.57-.47h.15a6.74,6.74,0,0,1,2.68.61,6.59,6.59,0,0,1,2.17,1.65,6.94,6.94,0,0,1,1.31,2.37,7.06,7.06,0,0,1,.35,2.71,6.62,6.62,0,0,1-2.27,4.55,7.33,7.33,0,0,1-4.74,1.78Z"/><path d="M77.54,11.68h.07a3.16,3.16,0,0,1,1.28.28,3,3,0,0,1,1,.76,3.4,3.4,0,0,1,.62,1.16l0,.09a3.29,3.29,0,0,1,.17,1.3,3.18,3.18,0,0,1-.32,1.19,3.41,3.41,0,0,1-.76,1,3.93,3.93,0,0,1-1.17.67,3.7,3.7,0,0,1-1.27.24h0a3.32,3.32,0,0,1-1.22-.25,3.11,3.11,0,0,1-1-.7,3.39,3.39,0,0,1-.72-1.1l0-.09a3.31,3.31,0,0,1-.27-1.28,3,3,0,0,1,.26-1.22,3.13,3.13,0,0,1,.78-1,3.82,3.82,0,0,1,1.26-.74,4,4,0,0,1,1.36-.25m-.12,5.63a2,2,0,0,0,.69-.14,1.81,1.81,0,0,0,.88-.61,1.77,1.77,0,0,0,.32-.94,3.25,3.25,0,0,0-.18-1.19l0-.1a2.93,2.93,0,0,0-.59-1,1.73,1.73,0,0,0-.87-.53,1.5,1.5,0,0,0-.37,0,2.4,2.4,0,0,0-.75.14,1.94,1.94,0,0,0-.9.64,1.69,1.69,0,0,0-.31,1,3.07,3.07,0,0,0,.23,1.17l0,.1a3.21,3.21,0,0,0,.63,1,1.76,1.76,0,0,0,.85.51,1.47,1.47,0,0,0,.36,0m.12-12.63a11.1,11.1,0,0,0-3.78.68,10.94,10.94,0,0,0-3.49,2.08,10,10,0,0,0-2.5,3.38,9.79,9.79,0,0,0-.89,4.1,10.27,10.27,0,0,0,.81,4l0,.1a10.5,10.5,0,0,0,2.18,3.29A10.11,10.11,0,0,0,77,25.35h.15a10.53,10.53,0,0,0,3.68-.67,10.68,10.68,0,0,0,3.37-2,10.18,10.18,0,0,0,2.41-3.12,9.93,9.93,0,0,0,1-3.82,10.42,10.42,0,0,0-.48-3.94l0-.09a10.16,10.16,0,0,0-2-3.57,9.93,9.93,0,0,0-3.35-2.55,10.16,10.16,0,0,0-4.08-.94Z"/><path d="M83.69,19.81a3.52,3.52,0,0,1-3.37-2.53l-.21-.74a3.5,3.5,0,0,1,.15-2.35l-.11-.41a3.46,3.46,0,0,1-1.38-1.91l-.21-.75a3.48,3.48,0,0,1,.3-2.66A3.54,3.54,0,0,1,81,6.79c1.46-.41,2.22-.61,3.7-1a7.79,7.79,0,0,1,2.8-.19,5.49,5.49,0,0,1,2.88,1.23,5.12,5.12,0,0,1,1.72,2.92,5,5,0,0,1,0,1.77,3.44,3.44,0,0,1,1,1.83l.15.76a3.54,3.54,0,0,1-.52,2.63,3.5,3.5,0,0,1-2.24,1.48l-1.61.34a3.27,3.27,0,0,1-.76.08h0a3.12,3.12,0,0,1-.74.27c-1.09.27-1.64.41-2.72.73A3.52,3.52,0,0,1,83.69,19.81Z"/><path d="M86.58,9.09l.43,0a2.12,2.12,0,0,1,1.08.44,1.62,1.62,0,0,1,.54.94,1.71,1.71,0,0,1-.12,1,2.33,2.33,0,0,1-.74.87h0l-.19-.23-1.24.57.16.21-1.3.32.4,1.58.78-.06c.07.3.11.45.18.74-1.14.28-1.71.43-2.85.76-.09-.3-.13-.44-.21-.74l.7-.33L83,10.81l-.82.09-.22-.74c1.41-.41,2.12-.59,3.55-.93a4.56,4.56,0,0,1,1.11-.14m-1.65,3.24L86.11,12a1.65,1.65,0,0,0,.89-.45.78.78,0,0,0,.17-.73.9.9,0,0,0-.47-.63,1.13,1.13,0,0,0-.51-.1,2.25,2.25,0,0,0-.49.06l-1.24.31.47,1.83m2.82.09c.49.6.78,1,1.3,1.65h.63l.15.75-1.7.35c-.65-.9-1-1.38-1.65-2.21h0a3.33,3.33,0,0,0,1.22-.54M86.58,2.09a11.9,11.9,0,0,0-2.73.33c-1.52.36-2.35.58-3.85,1a7,7,0,0,0-4.81,8.66l.11.37.11.37a6.87,6.87,0,0,0,1.09,2.22,6.61,6.61,0,0,0,.25,2.45l.14.5.07.24a7,7,0,0,0,6.73,5.07A7.12,7.12,0,0,0,85.61,23c1-.3,1.53-.43,2.59-.69a5.79,5.79,0,0,0,.71-.21c.25,0,.49-.07.73-.12.62-.14.93-.2,1.54-.32a7,7,0,0,0,5.51-8.23l-.11-.59,0-.17a7.16,7.16,0,0,0-.88-2.28,10.08,10.08,0,0,0-.17-1.33,8.6,8.6,0,0,0-2.91-4.92,9.14,9.14,0,0,0-4.66-2,11.9,11.9,0,0,0-1.34-.08Z"/><path d="M94.71,17.59a7.16,7.16,0,0,1-2.38-.4,6.35,6.35,0,0,1-2.86-2A6.87,6.87,0,0,1,88.06,12l0-.21a6.76,6.76,0,0,1,.31-3.56,6.42,6.42,0,0,1,2.23-2.9A7.31,7.31,0,0,1,94,4.05,9.84,9.84,0,0,1,95.17,4a8.45,8.45,0,0,1,1.34.1A7.22,7.22,0,0,1,99.06,5a3.49,3.49,0,0,1,1.72,2.71l.13,1.4a3.61,3.61,0,0,1,.3,1.15l.22,2.58a3.48,3.48,0,0,1-1.36,3.08A7.6,7.6,0,0,1,98.12,17a9.38,9.38,0,0,1-2.36.57A7.71,7.71,0,0,1,94.71,17.59Z"/><path d="M95.17,7.48a5.32,5.32,0,0,1,.81.06A3.5,3.5,0,0,1,97.29,8c.06.57.08.85.13,1.42l-1.11.1L96,8.67a1.74,1.74,0,0,0-.57-.18l-.37,0-.42,0a2.2,2.2,0,0,0-1.06.42,1.84,1.84,0,0,0-.58.88,2.79,2.79,0,0,0-.07,1.2l0,.22a2.72,2.72,0,0,0,.4,1.09,1.74,1.74,0,0,0,.78.64,1.89,1.89,0,0,0,.77.15l.34,0a3.37,3.37,0,0,0,.69-.14,3.78,3.78,0,0,0,.51-.21l-.12-1.08-1,0c0-.35-.07-.53-.11-.89,1-.12,1.52-.17,2.53-.26.09,1,.13,1.55.22,2.58a4.16,4.16,0,0,1-1.09.59,6.09,6.09,0,0,1-1.51.36c-.22,0-.43,0-.63,0a3.53,3.53,0,0,1-1.21-.2A2.78,2.78,0,0,1,92.19,13a3.14,3.14,0,0,1-.67-1.54l0-.22a3.22,3.22,0,0,1,.14-1.73,2.8,2.8,0,0,1,1-1.31,3.82,3.82,0,0,1,1.78-.65,6.76,6.76,0,0,1,.76,0m0-7a12.54,12.54,0,0,0-1.61.1,10.7,10.7,0,0,0-5,1.94A9.94,9.94,0,0,0,85.07,7a10.15,10.15,0,0,0-.49,5.37l0,.12v.1a10.29,10.29,0,0,0,2.14,4.8,10,10,0,0,0,4.41,3.09,10.46,10.46,0,0,0,3.55.6A12.5,12.5,0,0,0,96.19,21a13.51,13.51,0,0,0,3.2-.78,11.81,11.81,0,0,0,2.8-1.55,7,7,0,0,0,2.73-6.18l-.23-2.57a7,7,0,0,0-.34-1.66l0-.17-.06-.73a7,7,0,0,0-3.46-5.43A10.56,10.56,0,0,0,97,.62,12.73,12.73,0,0,0,95.17.48Z"/><path d="M100.32,17a3.49,3.49,0,0,1-3.49-3.3l0-.77A3.5,3.5,0,0,1,98,10.11c.55-1.52,1-2.64,1.75-4.44a3.48,3.48,0,0,1,3.16-2.15c.62,0,1,0,1.53,0h.12a3.49,3.49,0,0,1,3.2,2.1c.78,1.78,1.24,2.89,1.82,4.4a3.52,3.52,0,0,1,1.25,2.81l0,.77a3.5,3.5,0,0,1-3.5,3.37h-.13c-.92,0-1.38-.05-2.3-.05a3.51,3.51,0,0,1-1-.16,3.46,3.46,0,0,1-1,.18c-.93,0-1.39,0-2.31.09Z"/><path d="M104.48,7h.06c1,2.23,1.42,3.35,2.26,5.6l.51.08c0,.31,0,.46,0,.77-1,0-1.45,0-2.41,0v-.77l.5-.08c-.13-.35-.19-.52-.31-.88h-.74l-1.81,0c-.12.35-.18.53-.29.88l.5.07c0,.31,0,.46,0,.77-1,0-1.44,0-2.41.09l0-.76.51-.1C101.59,10.39,102,9.26,103,7h1.52m-1.65,3.74h1.89c-.34-.88-.52-1.32-.88-2.19l-.07-.2h0c0,.09,0,.13-.08.21-.34.88-.51,1.32-.83,2.19M104.54,0h-.06c-.64,0-1,0-1.65,0a7,7,0,0,0-6.33,4.3C95.84,5.89,95.41,7,95,8.21a7,7,0,0,0-1.66,4.93l0,.46,0,.3a7,7,0,0,0,7,6.61h.4c.89-.05,1.3-.06,2.19-.08a7.79,7.79,0,0,0,1-.09,7.77,7.77,0,0,0,1,.07c.89,0,1.3,0,2.2,0h.25a7,7,0,0,0,7-6.75v-.14l0-.62a7,7,0,0,0-1.74-4.89c-.48-1.23-.93-2.29-1.61-3.85A7,7,0,0,0,104.54,0Z"/><path d="M116,17.77a3.23,3.23,0,0,1-.53,0l-1.29-.19a3.5,3.5,0,0,1-1.06-.31,3.57,3.57,0,0,1-.74.08l-.36,0c-1.12-.12-1.67-.17-2.79-.24A3.51,3.51,0,0,1,106,13.32l0-.76a3.52,3.52,0,0,1,.93-2.15l0-.43a3.5,3.5,0,0,1-.64-2.27l.05-.77a3.5,3.5,0,0,1,3.49-3.27h.23l.85.06,1.63.14a3.51,3.51,0,0,1,1.21.34,3.86,3.86,0,0,1,.84-.1,3.11,3.11,0,0,1,.43,0c1,.12,1.47.19,2.44.34l.85.13A3.51,3.51,0,0,1,120.62,6a3.55,3.55,0,0,1,.62,2.61l-.13.76A3.43,3.43,0,0,1,120,11.47l-.51,3.33A3.5,3.5,0,0,1,116,17.77Z"/><path d="M109.86,7.17l.82.06,1.56.13c1.16,1.9,1.71,2.85,2.73,4.78h0c.19-1.4.29-2.1.48-3.49l-1-.26.09-.77c.94.12,1.41.18,2.35.33l.81.12-.12.77h-.83c-.34,2.17-.5,3.26-.84,5.43l-1.36-.2c-1-1.91-1.56-2.85-2.73-4.73h0c-.13,1.38-.19,2.08-.32,3.47l.9.22c0,.31,0,.46-.08.77-1.17-.13-1.75-.18-2.93-.25l0-.77.78-.08c.13-1.83.2-2.74.34-4.58l-.8-.18,0-.78m0-7a7,7,0,0,0-7,6.55l0,.57v.2a6.9,6.9,0,0,0,.27,2.45,6.88,6.88,0,0,0-.59,2.39l0,.46,0,.31A7,7,0,0,0,109,20.54c1.08.07,1.58.12,2.66.23.24,0,.49,0,.73,0h.31a6.7,6.7,0,0,0,1,.21l1.23.18a7.82,7.82,0,0,0,1.07.08,7,7,0,0,0,6.91-5.94l.36-2.31a6.89,6.89,0,0,0,1.29-3l.07-.38.06-.38a7,7,0,0,0-5.78-8L118,1c-1-.16-1.54-.23-2.54-.36a8.46,8.46,0,0,0-.87-.05h-.44a7.62,7.62,0,0,0-1.28-.24L111.2.25l-.88-.06-.46,0Z"/><path d="M121.76,18.88a3.63,3.63,0,0,1-.8-.09c-1.09-.26-1.64-.37-2.74-.59A3.45,3.45,0,0,1,116,16.73a3.5,3.5,0,0,1-.54-2.63l.14-.7a3.56,3.56,0,0,1,1.2-2l.09-.46a3.54,3.54,0,0,1-.36-2.32l.15-.76A3.5,3.5,0,0,1,120.09,5a3.88,3.88,0,0,1,.67.06c1.3.25,1.95.39,3.25.69a3.5,3.5,0,0,1,2.62,4.2l-.18.77a3.56,3.56,0,0,1-1.28,2l-.09.42a3.5,3.5,0,0,1,.26,2.33l-.18.75A3.5,3.5,0,0,1,121.76,18.88Z"/><path d="M120.1,8.49c1.25.24,1.87.37,3.12.66L123,9.9l-.82-.05c-.4,1.79-.6,2.69-1,4.48l.72.3-.18.75c-1.14-.27-1.72-.39-2.87-.61L119,14l.78,0,.92-4.5L120,9.24l.15-.75m0-7a7,7,0,0,0-6.87,5.67l-.07.41-.07.35a7.08,7.08,0,0,0,0,2.47,7,7,0,0,0-.89,2.3l-.06.31-.08.44a7,7,0,0,0,5.54,8.21c1.07.21,1.56.31,2.61.56a7.34,7.34,0,0,0,1.6.18,7,7,0,0,0,6.81-5.4l0-.18.14-.57a7.08,7.08,0,0,0,.13-2.46,7.1,7.1,0,0,0,1-2.27l.06-.29.11-.46a7,7,0,0,0-5.22-8.42c-1.33-.31-2-.46-3.39-.72a7.58,7.58,0,0,0-1.33-.13Z"/><path d="M128.91,20.73h-.57a9.55,9.55,0,0,1-2.22-.43,7.69,7.69,0,0,1-3-1.66,6.49,6.49,0,0,1-1.85-3,6.73,6.73,0,0,1,0-3.59l.06-.21a6.6,6.6,0,0,1,1.79-3.1,6.4,6.4,0,0,1,3.28-1.67,6.7,6.7,0,0,1,1.28-.12,8.15,8.15,0,0,1,2.39.38,9,9,0,0,1,2.23,1,7.25,7.25,0,0,1,1.89,1.81,3.48,3.48,0,0,1,.46,3.2l-.51,1.46a3.47,3.47,0,0,1-.52,1,3.74,3.74,0,0,1-.2,1.09L133,18.33a3.47,3.47,0,0,1-2.64,2.27A7.14,7.14,0,0,1,128.91,20.73Z"/><path d="M127.73,10.43a4.43,4.43,0,0,1,1.35.22,5.59,5.59,0,0,1,1.35.63,3.63,3.63,0,0,1,1,.93c-.2.59-.31.88-.51,1.46l-1.07-.36c.07-.39.1-.59.16-1a2.06,2.06,0,0,0-.3-.29,2.59,2.59,0,0,0-.39-.25,3,3,0,0,0-.48-.19,2.47,2.47,0,0,0-.73-.12,1.47,1.47,0,0,0-.42,0,1.72,1.72,0,0,0-.9.52,2.63,2.63,0,0,0-.56,1l-.06.22a2.59,2.59,0,0,0-.08,1.19,1.88,1.88,0,0,0,.47.93,2.11,2.11,0,0,0,.95.57,2.63,2.63,0,0,0,.62.13l.44,0h.16l.43-.81,1,.35c-.21.58-.31.87-.51,1.45a4.42,4.42,0,0,1-.76.06h-.37a5.57,5.57,0,0,1-1.37-.26,4.22,4.22,0,0,1-1.62-.9,3,3,0,0,1-.86-1.38,3.26,3.26,0,0,1,0-1.75l0-.21a3.15,3.15,0,0,1,.84-1.48,2.82,2.82,0,0,1,1.5-.75,3.18,3.18,0,0,1,.62-.06m0-7a10.34,10.34,0,0,0-1.93.18,9.92,9.92,0,0,0-5,2.58A10.17,10.17,0,0,0,118,10.92l0,.09,0,.12a10.25,10.25,0,0,0,0,5.44,9.93,9.93,0,0,0,2.85,4.63,11.15,11.15,0,0,0,4.28,2.43,12.42,12.42,0,0,0,3,.58c.27,0,.53,0,.78,0A10.9,10.9,0,0,0,131,24a7,7,0,0,0,5.27-4.55l.34-.95.17-.5a6.25,6.25,0,0,0,.28-1.05,6.44,6.44,0,0,0,.44-1l.4-1.13.12-.33a7,7,0,0,0-.92-6.4,10.91,10.91,0,0,0-2.81-2.69A12.58,12.58,0,0,0,131.17,4a11.48,11.48,0,0,0-3.44-.54Z"/><path d="M138.31,24.86a3.58,3.58,0,0,1-1.57-.37c-1-.52-1.53-.76-2.57-1.23a3.49,3.49,0,0,1-1.84-2,3.55,3.55,0,0,1,.09-2.68l.32-.7a3.44,3.44,0,0,1,1.64-1.7l.17-.37a3.45,3.45,0,0,1,.19-2.36l.32-.71a3.51,3.51,0,0,1,4.63-1.74c2.36,1.07,3.56,1.67,5.83,2.91a3.5,3.5,0,0,1,1.39,4.75l-.84,1.54A3.54,3.54,0,0,1,144,21.93l-.08,0a3.48,3.48,0,0,1-1.75,1.21,3,3,0,0,1-.94.15,3.52,3.52,0,0,1-1.8,1.37A3.43,3.43,0,0,1,138.31,24.86Z"/><path d="M138.25,14.24c2.27,1,3.39,1.58,5.59,2.79-.34.62-.51.92-.84,1.54L142,18l.3-.71c-.9-.48-1.35-.71-2.26-1.15l-.77,1.59c.95.46,1.43.7,2.37,1.2l-.47.88c-.93-.5-1.39-.74-2.34-1.2L138,20.2l.65.47-.35.69c-1.07-.54-1.61-.8-2.7-1.29l.32-.7.76.2,1.93-4.16-.69-.47.32-.7m0-7a7,7,0,0,0-6.38,4.11l-.32.71a6.79,6.79,0,0,0-.6,2.39,7.07,7.07,0,0,0-1.4,2l-.15.33-.17.38a7,7,0,0,0,3.5,9.26c1,.46,1.46.67,2.45,1.17A7,7,0,0,0,143,26.56a7,7,0,0,0,2.89-1.62,7,7,0,0,0,3.25-3l.24-.44.6-1.1a7,7,0,0,0-2.78-9.5c-2.33-1.28-3.64-1.93-6.07-3a7,7,0,0,0-2.88-.62Z"/><path d="M147.38,29.63a7,7,0,0,1-1.5-.17,7.45,7.45,0,0,1-2.41-1,7.36,7.36,0,0,1-1.93-1.79,6.93,6.93,0,0,1-1.12-2.34,6.55,6.55,0,0,1-.13-2.61,6.81,6.81,0,0,1,.88-2.5l.06-.09a6.82,6.82,0,0,1,1.79-2,6.53,6.53,0,0,1,2.5-1.14,6.9,6.9,0,0,1,1.36-.14,6.59,6.59,0,0,1,1.4.15A7.57,7.57,0,0,1,150.84,17a7.66,7.66,0,0,1,2,1.9,6.69,6.69,0,0,1,1.15,2.5,6.38,6.38,0,0,1,0,2.75,6.79,6.79,0,0,1-1.11,2.51,7,7,0,0,1-2,1.92,6.62,6.62,0,0,1-2.44.94A6.89,6.89,0,0,1,147.38,29.63Z"/><path d="M146.88,19.31a3.23,3.23,0,0,1,.69.07,4.11,4.11,0,0,1,1.36.58,3.74,3.74,0,0,1,1.1,1,3.27,3.27,0,0,1,.57,1.21,3.15,3.15,0,0,1,0,1.26,3.23,3.23,0,0,1-.54,1.2l-.06.08a3.28,3.28,0,0,1-.95.91,3.12,3.12,0,0,1-1.16.45,4.55,4.55,0,0,1-.52,0,3.12,3.12,0,0,1-.74-.09,3.69,3.69,0,0,1-1.27-.54,3.78,3.78,0,0,1-1-.93,3.39,3.39,0,0,1-.55-1.13,3.17,3.17,0,0,1-.06-1.23A3.27,3.27,0,0,1,144.2,21l0-.09a3.31,3.31,0,0,1,.87-1,3,3,0,0,1,1.14-.52,2.7,2.7,0,0,1,.63-.07m.06,5.69h0a1.76,1.76,0,0,0,1-.3,2.84,2.84,0,0,0,.84-.85l.06-.09a2.66,2.66,0,0,0,.47-1.09,1.62,1.62,0,0,0-.12-1,2.22,2.22,0,0,0-1.83-1.2h0a1.61,1.61,0,0,0-1,.32,2.9,2.9,0,0,0-.8.89l-.06.09a3.14,3.14,0,0,0-.43,1.11,1.76,1.76,0,0,0,.11,1,1.9,1.9,0,0,0,.73.8,1.86,1.86,0,0,0,1,.34m-.06-12.69a10.62,10.62,0,0,0-2.1.22,9.79,9.79,0,0,0-3.84,1.75,10.25,10.25,0,0,0-2.74,3.07l0,.08a10.59,10.59,0,0,0-1.33,3.76,10.2,10.2,0,0,0,1.91,7.55,10.88,10.88,0,0,0,2.84,2.64,10.68,10.68,0,0,0,5.81,1.75,10.36,10.36,0,0,0,1.67-.14,10.09,10.09,0,0,0,3.73-1.42,10.27,10.27,0,0,0,2.94-2.79l0-.05a10.32,10.32,0,0,0,1.71-3.84,9.94,9.94,0,0,0,0-4.24,10.22,10.22,0,0,0-1.73-3.8,11.15,11.15,0,0,0-2.95-2.77A11,11,0,0,0,149,12.53a10.08,10.08,0,0,0-2.11-.22Z"/><path d="M155.16,35.4A6.87,6.87,0,0,1,152.8,35a7.85,7.85,0,0,1-4-3.33A6.86,6.86,0,0,1,148,29.2a6.51,6.51,0,0,1,.16-2.64,6.79,6.79,0,0,1,1.19-2.39.86.86,0,0,1,.07-.1,6.85,6.85,0,0,1,2-1.79,6.64,6.64,0,0,1,2.64-.8l.52,0a6.86,6.86,0,0,1,2.22.38,7.52,7.52,0,0,1,2.41,1.39A7.61,7.61,0,0,1,161,25.35a6.9,6.9,0,0,1,.86,2.63,6.45,6.45,0,0,1-.29,2.76,6.62,6.62,0,0,1-1.42,2.38,6.83,6.83,0,0,1-2.24,1.67,6.68,6.68,0,0,1-2.58.61Z"/><path d="M154.61,25a3.24,3.24,0,0,1,1.08.19,4.29,4.29,0,0,1,1.31.76,4.21,4.21,0,0,1,1,1.16,3.34,3.34,0,0,1,.43,1.29,3,3,0,0,1-.13,1.27,3.31,3.31,0,0,1-.68,1.13l-.07.07a3.31,3.31,0,0,1-1.06.78,3,3,0,0,1-1.21.29h-.1a3.44,3.44,0,0,1-1.17-.21,4.12,4.12,0,0,1-1.21-.72,3.9,3.9,0,0,1-.91-1.06,3.45,3.45,0,0,1-.42-1.2,3.24,3.24,0,0,1,.08-1.24,3.36,3.36,0,0,1,.59-1.18l.06-.08a3.22,3.22,0,0,1,1-.87,3,3,0,0,1,1.21-.37h.24m0,5.74a1.85,1.85,0,0,0,.78-.18,3,3,0,0,0,.94-.74l.07-.08a2.89,2.89,0,0,0,.6-1,1.76,1.76,0,0,0,0-1,2,2,0,0,0-.68-.95,2,2,0,0,0-1-.49l-.21,0a1.68,1.68,0,0,0-.8.21,2.94,2.94,0,0,0-.9.78l-.07.08a3.21,3.21,0,0,0-.56,1.06,1.74,1.74,0,0,0,0,1,1.84,1.84,0,0,0,.64.89,2,2,0,0,0,1,.49h.23m0-12.74c-.27,0-.54,0-.8,0a10.05,10.05,0,0,0-4.07,1.24A10.22,10.22,0,0,0,146.61,22l0,.05a10.17,10.17,0,0,0-1.8,3.64,10,10,0,0,0-.25,4,10.27,10.27,0,0,0,1.28,3.74,11.21,11.21,0,0,0,5.81,4.87,10.3,10.3,0,0,0,3.55.63h.31a10.18,10.18,0,0,0,3.91-.92,10.28,10.28,0,0,0,3.32-2.43l.07-.07a10.19,10.19,0,0,0,2.15-3.63,9.89,9.89,0,0,0,.45-4.25,10.25,10.25,0,0,0-1.29-4,11.13,11.13,0,0,0-2.59-3.08,11,11,0,0,0-3.51-2,10.34,10.34,0,0,0-3.37-.58Z"/><path d="M162.24,42a6.73,6.73,0,0,1-2.45-.46,7.55,7.55,0,0,1-2.82-2c-.89-.95-1.33-1.4-2.26-2.3a3.5,3.5,0,0,1-.05-5l.54-.55a3.47,3.47,0,0,1,2.21-1l.19-.19a3.48,3.48,0,0,1,1-2.24l.53-.55a3.49,3.49,0,0,1,2.47-1.06h0a3.49,3.49,0,0,1,2.45,1l.66.65c.81.81,1.21,1.22,2,2.06a7.86,7.86,0,0,1,1.83,3.12,6.36,6.36,0,0,1-2,6.8l-.09.08A6.45,6.45,0,0,1,162.24,42Z"/><path d="M161.63,30.24l.63.62c.78.78,1.16,1.17,1.91,2a4.35,4.35,0,0,1,1,1.72,3.19,3.19,0,0,1,0,1.73,2.94,2.94,0,0,1-.93,1.42l-.09.08a3.07,3.07,0,0,1-1.53.71,3.55,3.55,0,0,1-.46,0,3.11,3.11,0,0,1-1.19-.23,4.07,4.07,0,0,1-1.53-1.07c-.93-1-1.4-1.47-2.36-2.41l.54-.55c.28.19.42.28.69.48l3.22-3.23-.52-.73.54-.55m0,7a1.91,1.91,0,0,0,.52-.07,2.36,2.36,0,0,0,1-.56l.09-.08a2.35,2.35,0,0,0,.67-.93,1.79,1.79,0,0,0,.08-1,2.18,2.18,0,0,0-.59-1c-.27-.3-.41-.45-.69-.74l-3.2,3.08c.27.27.4.41.66.69a2.11,2.11,0,0,0,.95.62,1.86,1.86,0,0,0,.52.07m0-13.95h-.08a7,7,0,0,0-4.93,2.11l0,0-.51.51a7,7,0,0,0-1.38,2,6.88,6.88,0,0,0-2,1.44l-.27.27-.27.28a7,7,0,0,0,.12,9.89c.89.87,1.29,1.28,2.14,2.19a11,11,0,0,0,4.11,2.82,10.23,10.23,0,0,0,3.72.7,9.38,9.38,0,0,0,1.5-.11,10.07,10.07,0,0,0,5-2.31l0,0,0,0A9.82,9.82,0,0,0,172,38.16a10.18,10.18,0,0,0-.07-5.58,11.3,11.3,0,0,0-2.63-4.52c-.8-.86-1.25-1.32-2.08-2.14l-.68-.68a7,7,0,0,0-4.9-2Z"/><path class="cls-1" d="M46.68,40.81l-.58-.5.77-1.08-3.25-2.87c-.37.42-.56.63-.93,1.07L42.14,37c.67-1.06,1-1.58,1.73-2.61l4,3.73,1-.87.55.53C48.33,38.93,47.77,39.54,46.68,40.81Z"/><path class="cls-1" d="M53.24,34.16a2.73,2.73,0,0,1-1.82.81,2.59,2.59,0,0,1-1.85-.89l-1-1a2.44,2.44,0,0,1-.81-1.9,3.26,3.26,0,0,1,3-2.71,2.4,2.4,0,0,1,1.81,1l.92,1.07a2.59,2.59,0,0,1,.73,1.92A2.71,2.71,0,0,1,53.24,34.16Zm-.67-.73a.92.92,0,0,0,.35-.78,2,2,0,0,0-.55-1l-1.11-1.24a1.67,1.67,0,0,0-.95-.64,1,1,0,0,0-.85.29,1,1,0,0,0-.38.83,1.85,1.85,0,0,0,.56,1l1.14,1.21a1.77,1.77,0,0,0,1,.63A.92.92,0,0,0,52.57,33.43Z"/><path class="cls-1" d="M59.24,29.21a2.61,2.61,0,0,1-1.87.59,2.52,2.52,0,0,1-1.73-1.09l-.88-1.1a2.44,2.44,0,0,1-.62-2,2.73,2.73,0,0,1,1.18-1.72,2.7,2.7,0,0,1,2-.62A2.42,2.42,0,0,1,59,24.47l.8,1.16a2.38,2.38,0,0,1-.55,3.58Zm-.59-.79a.9.9,0,0,0,.41-.74,1.86,1.86,0,0,0-.44-1.07l-1-1.35a1.78,1.78,0,0,0-.88-.75,1.11,1.11,0,0,0-1.31,1,1.81,1.81,0,0,0,.45,1.05l1,1.33a1.85,1.85,0,0,0,.9.73A.92.92,0,0,0,58.65,28.42Z"/><path class="cls-1" d="M62.76,22.47a2,2,0,0,1-.85.33,1.38,1.38,0,0,1-.74-.08,1.26,1.26,0,0,1-.54-.46L60.45,22a1.1,1.1,0,0,1-.19-.68,1.24,1.24,0,0,1,.24-.71,2.49,2.49,0,0,1,1.58-1,1.33,1.33,0,0,1,.75.1,1.15,1.15,0,0,1,.51.49l.18.29a1.2,1.2,0,0,1,.16.68,1.31,1.31,0,0,1-.24.69A2.15,2.15,0,0,1,62.76,22.47Zm-.37-.6a.68.68,0,0,0,.32-.4.6.6,0,0,0-.08-.45l-.17-.29a.65.65,0,0,0-.38-.29.66.66,0,0,0-.51.11.63.63,0,0,0-.32.41.58.58,0,0,0,.08.46l.18.28a.58.58,0,0,0,.37.28A.71.71,0,0,0,62.39,21.87Zm2.22,3-.79.09c.17-2.46.31-3.7.67-6.2l.83-.07C64.94,21.21,64.79,22.45,64.61,24.91Zm3-1.11a1.9,1.9,0,0,1-.84.26,1.3,1.3,0,0,1-.71-.14,1.16,1.16,0,0,1-.5-.48l-.17-.3a1.16,1.16,0,0,1-.17-.67,1.32,1.32,0,0,1,.25-.69,2,2,0,0,1,.69-.59,2.19,2.19,0,0,1,.86-.27,1.29,1.29,0,0,1,.71.16,1.15,1.15,0,0,1,.49.51l.16.29a1.32,1.32,0,0,1,.14.69,1.23,1.23,0,0,1-.25.67A2,2,0,0,1,67.66,23.8Zm-.35-.63a.58.58,0,0,0,.33-.37.63.63,0,0,0-.08-.45l-.16-.3a.61.61,0,0,0-.35-.3.61.61,0,0,0-.5.07.62.62,0,0,0-.32.38.59.59,0,0,0,.07.45l.17.3a.61.61,0,0,0,.36.29A.63.63,0,0,0,67.31,23.17Z"/><path class="cls-1" d="M78,19.11a3.57,3.57,0,0,1-1.33.24,3.27,3.27,0,0,1-1.21-.25,2.92,2.92,0,0,1-1-.7,3.39,3.39,0,0,1-.72-1.1l0-.09a3.31,3.31,0,0,1-.27-1.28,3,3,0,0,1,.26-1.22,3.13,3.13,0,0,1,.78-1,3.77,3.77,0,0,1,1.25-.74,4,4,0,0,1,1.44-.25,3.11,3.11,0,0,1,1.27.28,3,3,0,0,1,1,.76A3.25,3.25,0,0,1,80,14.88L80,15a3.48,3.48,0,0,1,.17,1.3,3,3,0,0,1-.33,1.19,3.09,3.09,0,0,1-.76,1A3.76,3.76,0,0,1,78,19.11Zm-.35-.94a1.74,1.74,0,0,0,.87-.61,1.69,1.69,0,0,0,.33-.94,3.25,3.25,0,0,0-.18-1.19l0-.1a2.92,2.92,0,0,0-.58-1,1.72,1.72,0,0,0-.88-.53,1.9,1.9,0,0,0-1.11.1,2,2,0,0,0-.91.64,1.69,1.69,0,0,0-.31,1A2.92,2.92,0,0,0,75,16.64l0,.1a3.2,3.2,0,0,0,.62,1,1.66,1.66,0,0,0,1.91.41Z"/><path class="cls-1" d="M83.18,17.31,83,16.57l.71-.33c-.49-1.78-.74-2.66-1.23-4.43l-.82.09-.21-.74c1.41-.41,2.12-.59,3.54-.93a4.46,4.46,0,0,1,1.54-.12,2.12,2.12,0,0,1,1.09.44,1.56,1.56,0,0,1,.53.94,1.58,1.58,0,0,1-.12,1,2.25,2.25,0,0,1-.74.87A3.44,3.44,0,0,1,86,14l-1.35.33c.16.63.24,1,.41,1.58l.78-.06c.07.3.11.45.18.74C84.88,16.83,84.31,17,83.18,17.31Zm1.24-4L85.6,13a1.69,1.69,0,0,0,.89-.45.78.78,0,0,0,.16-.73.88.88,0,0,0-.47-.63,1.5,1.5,0,0,0-1,0L84,11.5C84.13,12.23,84.23,12.6,84.42,13.33Zm3.2,2.85c-.71-1-1.07-1.46-1.81-2.42l1.24-.57c.61.75.9,1.12,1.49,1.88h.62l.15.75Z"/><path class="cls-1" d="M94.83,15.05A4.09,4.09,0,0,1,93,14.89,2.83,2.83,0,0,1,91.67,14,3.23,3.23,0,0,1,91,12.44l0-.22a3.22,3.22,0,0,1,.13-1.73,2.93,2.93,0,0,1,1-1.31,3.9,3.9,0,0,1,1.79-.65,5.49,5.49,0,0,1,1.57,0A3.56,3.56,0,0,1,96.78,9c0,.57.08.85.13,1.42l-1.11.1-.3-.83a1.91,1.91,0,0,0-.57-.18,3.56,3.56,0,0,0-.8,0,2.16,2.16,0,0,0-1,.42,1.86,1.86,0,0,0-.59.88,2.65,2.65,0,0,0-.06,1.2l0,.22a2.58,2.58,0,0,0,.4,1.09,1.71,1.71,0,0,0,.77.64,2,2,0,0,0,1.12.12,3.51,3.51,0,0,0,.69-.14,3.59,3.59,0,0,0,.5-.21l-.11-1.08-1,0-.1-.89c1-.12,1.51-.17,2.53-.26.09,1,.13,1.55.22,2.58a4.16,4.16,0,0,1-1.09.59A6.09,6.09,0,0,1,94.83,15.05Z"/><path class="cls-1" d="M99.81,14.51l0-.76.51-.1c.8-2.26,1.24-3.39,2.17-5.64H104c1,2.23,1.43,3.35,2.27,5.6l.5.08c0,.31,0,.46,0,.77-1,0-1.45,0-2.42,0,0-.31,0-.46,0-.77l.49-.08-.31-.88c-1,0-1.53,0-2.55,0-.11.35-.17.53-.29.88l.5.07c0,.31,0,.46,0,.77C101.25,14.44,100.77,14.46,99.81,14.51Zm2.51-2.77c.75,0,1.13,0,1.88,0-.34-.88-.51-1.32-.87-2.19l-.08-.2h0c0,.09,0,.13-.07.21C102.81,10.43,102.64,10.87,102.32,11.74Z"/><path class="cls-1" d="M108.93,14.56l0-.77.77-.08.35-4.58L109.3,9l0-.78.82.06,1.55.13c1.17,1.9,1.72,2.85,2.73,4.78h0c.2-1.4.29-2.1.48-3.49L114,9.39l.1-.77c.94.12,1.41.18,2.34.33l.82.12-.13.77h-.83c-.33,2.17-.5,3.26-.83,5.43l-1.36-.2c-1-1.91-1.57-2.85-2.73-4.73h0c-.12,1.38-.19,2.08-.32,3.47l.91.22c0,.31,0,.46-.08.77C110.69,14.68,110.1,14.63,108.93,14.56Z"/><path class="cls-1" d="M118.36,15.77l.15-.76.78,0,.92-4.5-.77-.29.14-.75c1.26.24,1.88.37,3.12.66l-.17.75-.83-.05-1,4.48.72.3-.18.75C120.09,16.11,119.52,16,118.36,15.77Z"/><path class="cls-1" d="M126.66,18a4.22,4.22,0,0,1-1.62-.9,2.89,2.89,0,0,1-.86-1.38,3.26,3.26,0,0,1,0-1.75l.06-.21a3.06,3.06,0,0,1,.84-1.48,2.83,2.83,0,0,1,1.49-.75,4.17,4.17,0,0,1,2,.16,5.59,5.59,0,0,1,1.35.63,3.78,3.78,0,0,1,1,.93l-.52,1.46-1.06-.36c.06-.39.09-.59.16-1a1.72,1.72,0,0,0-.31-.29,2.08,2.08,0,0,0-.38-.25,3.12,3.12,0,0,0-.49-.19,2.08,2.08,0,0,0-1.15-.07,1.73,1.73,0,0,0-.89.52,2.51,2.51,0,0,0-.56,1l-.06.22a2.46,2.46,0,0,0-.08,1.19,1.86,1.86,0,0,0,.46.93,2.09,2.09,0,0,0,1,.57,2.63,2.63,0,0,0,.62.13,3.09,3.09,0,0,0,.6,0c.17-.33.25-.49.43-.81l1,.35-.5,1.45a4.5,4.5,0,0,1-1.13,0A5.49,5.49,0,0,1,126.66,18Z"/><path class="cls-1" d="M135.09,21.07l.32-.7.76.2c.78-1.66,1.17-2.5,1.94-4.16l-.7-.47c.13-.28.2-.42.32-.7,2.27,1,3.39,1.58,5.6,2.79l-.85,1.54-1-.56c.12-.29.18-.43.29-.71-.89-.48-1.34-.71-2.25-1.15l-.78,1.59c1,.46,1.43.7,2.37,1.2l-.46.88c-.93-.5-1.4-.74-2.34-1.2l-.77,1.58.64.47c-.14.28-.21.41-.34.69C136.72,21.82,136.18,21.56,135.09,21.07Z"/><path class="cls-1" d="M144.85,26.5a3.94,3.94,0,0,1-1-.93,3.18,3.18,0,0,1-.54-1.13,3,3,0,0,1-.06-1.23,3.24,3.24,0,0,1,.44-1.24l0-.09a3.18,3.18,0,0,1,.87-1,2.82,2.82,0,0,1,1.14-.52,3.26,3.26,0,0,1,1.32,0,4.2,4.2,0,0,1,1.36.58,4,4,0,0,1,1.1,1,3.1,3.1,0,0,1,.56,1.21,2.82,2.82,0,0,1,0,1.26,3.23,3.23,0,0,1-.54,1.2l-.05.08a3.4,3.4,0,0,1-.95.91,3.16,3.16,0,0,1-1.17.45,3.36,3.36,0,0,1-1.26-.05A3.77,3.77,0,0,1,144.85,26.5Zm.55-.84a1.86,1.86,0,0,0,1,.34,1.76,1.76,0,0,0,1-.3,3.09,3.09,0,0,0,.84-.85l.06-.09a2.8,2.8,0,0,0,.47-1.09,1.77,1.77,0,0,0-.12-1,2,2,0,0,0-.77-.85,2,2,0,0,0-1.07-.35,1.66,1.66,0,0,0-1,.32,2.88,2.88,0,0,0-.79.89l-.06.09a3.17,3.17,0,0,0-.44,1.11,1.76,1.76,0,0,0,.12,1A1.9,1.9,0,0,0,145.4,25.66Z"/><path class="cls-1" d="M152.27,32a3.9,3.9,0,0,1-.91-1.06,3.45,3.45,0,0,1-.42-1.2,3.05,3.05,0,0,1,.08-1.24,3.2,3.2,0,0,1,.59-1.18l0-.08a3.26,3.26,0,0,1,1-.87,3,3,0,0,1,1.21-.37,3.4,3.4,0,0,1,1.32.18,4.25,4.25,0,0,1,1.3.76,4.44,4.44,0,0,1,1,1.16,3.34,3.34,0,0,1,.43,1.29,2.87,2.87,0,0,1-.14,1.27,3,3,0,0,1-.68,1.13l-.06.07a3.42,3.42,0,0,1-1.06.78,3.07,3.07,0,0,1-1.22.29,3.48,3.48,0,0,1-1.26-.21A4,4,0,0,1,152.27,32Zm.64-.77a2,2,0,0,0,1,.49,1.78,1.78,0,0,0,1-.17,2.89,2.89,0,0,0,.94-.74l.07-.08a2.62,2.62,0,0,0,.6-1,1.68,1.68,0,0,0,0-1,2.06,2.06,0,0,0-.68-.95,2,2,0,0,0-1-.49,1.6,1.6,0,0,0-1,.19,2.83,2.83,0,0,0-.9.78l-.07.08a3.07,3.07,0,0,0-.57,1.06,1.82,1.82,0,0,0,0,1A1.84,1.84,0,0,0,152.91,31.2Z"/><path class="cls-1" d="M156.65,35.82l.54-.55.69.48,3.22-3.23-.52-.73.54-.55.63.62c.77.78,1.16,1.17,1.91,2a4.32,4.32,0,0,1,1,1.72,3.1,3.1,0,0,1,0,1.73,2.81,2.81,0,0,1-.93,1.42l-.09.08a3,3,0,0,1-1.52.71,3.29,3.29,0,0,1-1.66-.2A4,4,0,0,1,159,38.23C158.08,37.24,157.61,36.76,156.65,35.82Zm2.36,1,.66.69a2.06,2.06,0,0,0,1,.62,1.81,1.81,0,0,0,1,0,2.36,2.36,0,0,0,1-.56l.1-.08a2.45,2.45,0,0,0,.67-.93,1.79,1.79,0,0,0,.07-1,2.16,2.16,0,0,0-.58-1l-.7-.74Z"/><path class="cls-1" d="M74.67,111.18a4.65,4.65,0,0,1-1.29-.16,3.52,3.52,0,0,1-1.14-.55v-1.54h1l.13.91a1.66,1.66,0,0,0,.55.27,2.59,2.59,0,0,0,.76.1,1.44,1.44,0,0,0,.58-.1.8.8,0,0,0,.37-.27.74.74,0,0,0,.12-.42.81.81,0,0,0-.11-.41.92.92,0,0,0-.37-.32,3.21,3.21,0,0,0-.7-.29,6.65,6.65,0,0,1-1.25-.49,1.91,1.91,0,0,1-.75-.63,1.56,1.56,0,0,1-.25-.9,1.52,1.52,0,0,1,.29-.91,1.88,1.88,0,0,1,.8-.63,3,3,0,0,1,1.17-.24,4,4,0,0,1,1.31.18,2.94,2.94,0,0,1,1,.51v1.44h-1l-.17-.88a1.61,1.61,0,0,0-.45-.18,2.49,2.49,0,0,0-.64-.08,1.45,1.45,0,0,0-.54.09.8.8,0,0,0-.37.27.64.64,0,0,0-.14.43.59.59,0,0,0,.12.37,1.13,1.13,0,0,0,.4.31,6.25,6.25,0,0,0,.77.3,4.11,4.11,0,0,1,1.6.78,1.59,1.59,0,0,1,.55,1.27,1.57,1.57,0,0,1-.29.94,2,2,0,0,1-.83.62A3.39,3.39,0,0,1,74.67,111.18Z"/><path class="cls-1" d="M79.16,111.09v-.77l.68-.13v-4.6l-.68-.13v-.77H81.8v.77l-.68.13v4.6l.68.13v.77Z"/><path class="cls-1" d="M83.91,111.09v-.77l.68-.13v-4.6l-.68-.13v-.77h2l2.78,4.44h0v-3.53l-.82-.13v-.77h2.65v.77l-.69.13v5.5H88.61l-2.84-4.4h0v3.49l.82.13v.77Z"/><path class="cls-1" d="M95.63,111.18a3.24,3.24,0,0,1-1.62-.39,2.7,2.7,0,0,1-1.07-1.1,3.6,3.6,0,0,1-.38-1.69v-.22a3.64,3.64,0,0,1,.37-1.65A2.66,2.66,0,0,1,94,105a3,3,0,0,1,1.6-.41,4,4,0,0,1,1.22.18,3,3,0,0,1,1,.56v1.55h-1l-.13-1a1.57,1.57,0,0,0-.68-.29,2.06,2.06,0,0,0-.44,0,1.66,1.66,0,0,0-.93.26,1.76,1.76,0,0,0-.6.76,3,3,0,0,0-.21,1.16V108a2.73,2.73,0,0,0,.22,1.16,1.63,1.63,0,0,0,1.58,1,2.08,2.08,0,0,0,.55-.07,2.35,2.35,0,0,0,.51-.16l.13-.9h1v1.53a3.66,3.66,0,0,1-.93.41A4.42,4.42,0,0,1,95.63,111.18Z"/><path class="cls-1" d="M100,111.09v-.77l.68-.13v-4.6l-.68-.13v-.77h5v1.73h-1l-.06-.74h-2v1.61h2.17v1H102v1.82H104l0-.76h1v1.75Z"/><path class="cls-1" d="M111.24,111.09v-.77l1.08-.13v-4.34h-1.09v-.73l2.37-.43v5.5l1.08.13v.77Z"/><path class="cls-1" d="M119,111.18a2.9,2.9,0,0,1-1.14-.21,1.66,1.66,0,0,1-.77-.63,1.78,1.78,0,0,1-.27-1,1.48,1.48,0,0,1,.29-.92,1.9,1.9,0,0,1,.8-.61,1.67,1.67,0,0,1-.7-.58,1.41,1.41,0,0,1-.25-.84,1.75,1.75,0,0,1,.26-1,1.57,1.57,0,0,1,.71-.61,2.51,2.51,0,0,1,1.06-.21,2.55,2.55,0,0,1,1.07.21,1.6,1.6,0,0,1,.72.61,1.75,1.75,0,0,1,.25,1,1.41,1.41,0,0,1-.25.84,1.74,1.74,0,0,1-.7.58,1.85,1.85,0,0,1,.8.62,1.46,1.46,0,0,1,.3.91,1.78,1.78,0,0,1-.28,1,1.68,1.68,0,0,1-.76.63A2.9,2.9,0,0,1,119,111.18Zm0-1a.91.91,0,0,0,.47-.12.71.71,0,0,0,.31-.33,1.1,1.1,0,0,0,0-1,.85.85,0,0,0-.32-.33.89.89,0,0,0-.47-.12.88.88,0,0,0-.46.12.85.85,0,0,0-.32.33,1.12,1.12,0,0,0-.11.5.93.93,0,0,0,.25.69A.86.86,0,0,0,119,110.2Zm0-2.89a.74.74,0,0,0,.4-.1.79.79,0,0,0,.26-.31,1.08,1.08,0,0,0,.09-.46.93.93,0,0,0-.1-.45.75.75,0,0,0-.26-.3.72.72,0,0,0-.4-.1.67.67,0,0,0-.55.23,1.12,1.12,0,0,0,0,1.26A.69.69,0,0,0,119,107.31Z"/><path class="cls-1" d="M125.27,111.18a3.21,3.21,0,0,1-.68-.07,2.68,2.68,0,0,1-.66-.2l.15-.93a3.41,3.41,0,0,0,.57.16,2.76,2.76,0,0,0,.57.06,1.08,1.08,0,0,0,.88-.39,1.9,1.9,0,0,0,.33-1.19v-.09a1.42,1.42,0,0,1-.52.42,1.59,1.59,0,0,1-.66.14,1.79,1.79,0,0,1-1-.27,1.72,1.72,0,0,1-.67-.76,2.79,2.79,0,0,1-.23-1.18,2.34,2.34,0,0,1,.28-1.16,2.05,2.05,0,0,1,1.87-1.12,2.19,2.19,0,0,1,1.15.3,2,2,0,0,1,.77.88,3.11,3.11,0,0,1,.28,1.39v1.39a2.94,2.94,0,0,1-.31,1.41,2.2,2.2,0,0,1-.86.9A2.45,2.45,0,0,1,125.27,111.18Zm.25-3a1.15,1.15,0,0,0,.53-.12,1,1,0,0,0,.37-.33V107a1.86,1.86,0,0,0-.25-1.07.75.75,0,0,0-.66-.36.64.64,0,0,0-.46.17,1.24,1.24,0,0,0-.31.47,2.13,2.13,0,0,0,0,1.32.91.91,0,0,0,.3.44A.72.72,0,0,0,125.52,108.15Z"/><path class="cls-1" d="M131.16,111.09l.06-.65a9.05,9.05,0,0,1,.35-1.78,8.22,8.22,0,0,1,.66-1.58,7.84,7.84,0,0,1,1-1.4H131l0,.63h-1v-1.62h4.52v1a9.64,9.64,0,0,0-.85,1.15,6,6,0,0,0-.55,1.1,6.8,6.8,0,0,0-.33,1.16c-.09.41-.15.86-.21,1.35l-.06.65Z"/></svg>